<svg width="121" height="102" viewBox="0 0 121 102" fill="none" xmlns="http://www.w3.org/2000/svg">
<g filter="url(#filter0_d_135_179)">
<path d="M43.6538 34.4793C43.6538 34.4793 37.2359 18.1033 22.06 21.1137C11.3792 23.2321 -0.96068 34.1223 6.056 51.2255C11.6428 64.8437 31.1617 80.1613 36.6385 81.6009C42.116 83.0405 69.2206 71.5463 69.2206 71.5463C69.2206 71.5463 51.1342 66.6778 58.0399 47.9445C58.0399 47.9445 66.6995 34.609 81.9359 42.3351C81.9359 42.3351 77.5154 30.3727 63.0555 28.1529C49.7109 28.1529 44.7494 35.0851 43.6538 34.4793Z" fill="url(#paint0_linear_135_179)"/>
</g>
<path d="M86.6162 16.4707C86.6162 16.4707 83.8718 13.4266 80.9287 13.1469C76.4668 12.722 74.3892 18.2977 76.0246 21.3984C77.6141 24.4124 84.7869 29.9625 85.6963 30.1156L86.3516 30.2696C86.3516 30.2696 95.0796 25.9048 97.0541 22.1376C99.0285 18.3703 97.0388 14.734 93.3287 13.6921C89.6195 12.6503 87.3919 16.1821 86.9295 16.4857" fill="url(#paint1_linear_135_179)"/>
<path d="M52.0956 11.411C52.0956 11.411 50.0244 9.11881 47.8021 8.90775C44.4337 8.58821 42.8654 12.7867 44.0998 15.1219C45.2996 17.3914 50.7148 21.5715 51.4006 21.6867L51.8955 21.8027C51.8955 21.8027 58.4841 18.5157 59.975 15.6785C61.4659 12.8414 59.9631 10.1035 57.1632 9.31892C54.3634 8.53438 52.6814 11.1941 52.3321 11.4228" fill="url(#paint2_linear_135_179)"/>
<path d="M72.1144 1.69473C72.1144 1.69473 70.8342 0.118748 69.4189 0.00697729C67.272 -0.162915 66.1901 2.81094 66.9338 4.43013C67.6572 6.00387 71.0373 8.8503 71.4735 8.92035L71.7874 8.99336C71.7874 8.99336 76.0609 6.57837 77.0676 4.56202C78.0742 2.54567 77.1671 0.647803 75.3925 0.142598C73.6179 -0.362607 72.4923 1.53229 72.2649 1.69846" fill="url(#paint3_linear_135_179)"/>
<g filter="url(#filter1_d_135_179)">
<path d="M85.2486 44.8555C85.2486 44.8555 78.3134 39.889 71.5173 42.2175C59.4597 44.8555 57.4613 63.0221 68.3384 70.0528C77.3015 77.0985 91.8218 80.7176 94.2866 80.5664C94.2866 80.5664 114.815 68.1477 115.692 57.0348C119.638 48.4619 113.39 39.1482 102.319 36.5023C92.0152 35.4439 87.0564 43.6454 86.0707 44.7042" fill="url(#paint4_linear_135_179)"/>
</g>
<path d="M24.9372 94.8305L21.8521 88.3443V93.4946C21.8521 93.9683 21.9051 94.2639 22.0111 94.3814C22.1563 94.5406 22.3859 94.6202 22.6999 94.6202H22.9825V94.8305H20.2036V94.6202H20.4862C20.8238 94.6202 21.0632 94.5216 21.2045 94.3246C21.2908 94.2033 21.334 93.9266 21.334 93.4946V88.458C21.334 88.1169 21.2948 87.8706 21.2163 87.719C21.1613 87.6091 21.0593 87.5182 20.9101 87.4462C20.7649 87.3704 20.5294 87.3325 20.2036 87.3325V87.1221H22.4644L25.3611 93.1535L28.2106 87.1221H30.4714V87.3325H30.1947C29.8532 87.3325 29.6118 87.431 29.4705 87.6281C29.3842 87.7493 29.341 88.026 29.341 88.458V93.4946C29.341 93.9683 29.396 94.2639 29.5059 94.3814C29.6511 94.5406 29.8807 94.6202 30.1947 94.6202H30.4714V94.8305H27.0802V94.6202H27.3628C27.7043 94.6202 27.9437 94.5216 28.0811 94.3246C28.1674 94.2033 28.2106 93.9266 28.2106 93.4946V88.3443L25.1314 94.8305H24.9372Z" fill="url(#paint5_linear_135_179)"/>
<path d="M34.1629 94.0801C33.6094 94.4932 33.2621 94.732 33.1208 94.7964C32.9088 94.8911 32.6831 94.9385 32.4437 94.9385C32.0708 94.9385 31.7627 94.8153 31.5194 94.569C31.28 94.3227 31.1602 93.9987 31.1602 93.5969C31.1602 93.343 31.2191 93.1232 31.3369 92.9375C31.4978 92.6798 31.7765 92.4373 32.1729 92.2099C32.5732 91.9825 33.2366 91.7058 34.1629 91.3799V91.1753C34.1629 90.6561 34.0765 90.2998 33.9038 90.1066C33.735 89.9133 33.4878 89.8167 33.162 89.8167C32.9147 89.8167 32.7185 89.8811 32.5732 90.0099C32.4241 90.1388 32.3495 90.2866 32.3495 90.4533L32.3613 90.783C32.3613 90.9574 32.3142 91.0919 32.22 91.1867C32.1297 91.2814 32.01 91.3288 31.8609 91.3288C31.7156 91.3288 31.5959 91.2795 31.5017 91.181C31.4114 91.0824 31.3663 90.9479 31.3663 90.7774C31.3663 90.4514 31.539 90.152 31.8844 89.8792C32.2298 89.6063 32.7145 89.4699 33.3386 89.4699C33.8175 89.4699 34.21 89.5476 34.5161 89.703C34.7477 89.8204 34.9184 90.0042 35.0283 90.2544C35.099 90.4173 35.1343 90.7508 35.1343 91.2549V93.0228C35.1343 93.5193 35.1441 93.8243 35.1637 93.938C35.1834 94.0479 35.2148 94.1218 35.2579 94.1597C35.305 94.1976 35.358 94.2166 35.4169 94.2166C35.4797 94.2166 35.5347 94.2033 35.5818 94.1768C35.6642 94.1275 35.8231 93.9892 36.0586 93.7618V94.0801C35.619 94.6486 35.1991 94.9328 34.7987 94.9328C34.6064 94.9328 34.4533 94.8684 34.3395 94.7396C34.2257 94.6107 34.1668 94.3909 34.1629 94.0801ZM34.1629 93.7106V91.7267C33.5702 91.9541 33.1875 92.1151 33.0148 92.2099C32.7047 92.3766 32.483 92.551 32.3495 92.7329C32.2161 92.9148 32.1493 93.1137 32.1493 93.3298C32.1493 93.6026 32.2337 93.83 32.4025 94.0119C32.5713 94.19 32.7656 94.2791 32.9854 94.2791C33.2837 94.2791 33.6762 94.0896 34.1629 93.7106Z" fill="url(#paint6_linear_135_179)"/>
<path d="M38.0368 90.5727C38.6688 89.8375 39.2712 89.4699 39.8443 89.4699C40.1387 89.4699 40.3918 89.5419 40.6038 89.6859C40.8157 89.8261 40.9845 90.0592 41.1101 90.3851C41.1965 90.6125 41.2396 90.9612 41.2396 91.4311V93.6538C41.2396 93.9835 41.2671 94.2071 41.3221 94.3246C41.3652 94.4193 41.4339 94.4932 41.5281 94.5463C41.6262 94.5993 41.8048 94.6259 42.0639 94.6259V94.8305H39.3968V94.6259H39.5087C39.7599 94.6259 39.9346 94.5899 40.0327 94.5179C40.1347 94.4421 40.2054 94.3322 40.2446 94.1881C40.2603 94.1313 40.2682 93.9532 40.2682 93.6538V91.522C40.2682 91.0483 40.2034 90.7054 40.0739 90.4931C39.9483 90.2771 39.7344 90.1691 39.4322 90.1691C38.9651 90.1691 38.5 90.4154 38.0368 90.9081V93.6538C38.0368 94.0062 38.0584 94.2241 38.1016 94.3075C38.1565 94.4174 38.2311 94.4989 38.3253 94.552C38.4234 94.6012 38.6197 94.6259 38.9141 94.6259V94.8305H36.247V94.6259H36.3648C36.6395 94.6259 36.824 94.5595 36.9182 94.4269C37.0163 94.2905 37.0654 94.0328 37.0654 93.6538V91.721C37.0654 91.0957 37.0497 90.7148 37.0183 90.5784C36.9908 90.442 36.9457 90.3491 36.8829 90.2998C36.824 90.2506 36.7436 90.2259 36.6415 90.2259C36.5316 90.2259 36.4001 90.2544 36.247 90.3112L36.1587 90.1066L37.7837 89.4699H38.0368V90.5727Z" fill="url(#paint7_linear_135_179)"/>
<path d="M43.9361 92.9318C43.6064 92.7765 43.3532 92.5604 43.1766 92.2838C43 92.0033 42.9117 91.6945 42.9117 91.3572C42.9117 90.8418 43.1119 90.3984 43.5122 90.027C43.9165 89.6556 44.4326 89.4699 45.0606 89.4699C45.5748 89.4699 46.0203 89.5912 46.3971 89.8337H47.5393C47.708 89.8337 47.8062 89.8394 47.8336 89.8508C47.8611 89.8583 47.8807 89.8735 47.8925 89.8962C47.9161 89.9303 47.9278 89.991 47.9278 90.0781C47.9278 90.1767 47.918 90.2449 47.8984 90.2828C47.8866 90.3017 47.865 90.3169 47.8336 90.3283C47.8062 90.3396 47.708 90.3453 47.5393 90.3453H46.8386C47.0584 90.6182 47.1683 90.9668 47.1683 91.3913C47.1683 91.8764 46.976 92.2914 46.5914 92.6362C46.2067 92.9811 45.6906 93.1535 45.043 93.1535C44.7761 93.1535 44.5033 93.1156 44.2246 93.0398C44.0519 93.1839 43.9341 93.3108 43.8713 93.4207C43.8125 93.5268 43.783 93.6178 43.783 93.6936C43.783 93.758 43.8144 93.8205 43.8772 93.8812C43.944 93.9418 44.0715 93.9854 44.2599 94.0119C44.3698 94.0271 44.6446 94.0403 45.0842 94.0517C45.8927 94.0707 46.4167 94.0972 46.6561 94.1313C47.0212 94.1806 47.3116 94.3113 47.5275 94.5235C47.7473 94.7358 47.8572 94.9973 47.8572 95.308C47.8572 95.7363 47.6492 96.138 47.2331 96.5132C46.6208 97.0665 45.8221 97.3431 44.8369 97.3431C44.0794 97.3431 43.4396 97.1783 42.9176 96.8486C42.6232 96.6591 42.476 96.462 42.476 96.2574C42.476 96.1664 42.4976 96.0754 42.5408 95.9845C42.6075 95.8443 42.7449 95.6491 42.9529 95.399C42.9804 95.3649 43.1805 95.1602 43.5534 94.785C43.3493 94.6675 43.2041 94.5633 43.1177 94.4724C43.0353 94.3776 42.9941 94.2715 42.9941 94.154C42.9941 94.0214 43.0491 93.866 43.159 93.6879C43.2728 93.5098 43.5318 93.2578 43.9361 92.9318ZM44.9605 89.7428C44.6701 89.7428 44.4267 89.8546 44.2305 90.0781C44.0342 90.3017 43.9361 90.6447 43.9361 91.1071C43.9361 91.7058 44.0696 92.1701 44.3365 92.4998C44.5406 92.7499 44.7996 92.875 45.1136 92.875C45.4119 92.875 45.6572 92.767 45.8495 92.551C46.0419 92.3349 46.138 91.9958 46.138 91.5334C46.138 90.9308 46.0026 90.459 45.7318 90.1179C45.5316 89.8678 45.2745 89.7428 44.9605 89.7428ZM43.8772 94.8305C43.6928 95.0238 43.5534 95.2038 43.4592 95.3705C43.365 95.5373 43.3179 95.6908 43.3179 95.831C43.3179 96.0129 43.4317 96.1721 43.6594 96.3085C44.0519 96.5435 44.6191 96.661 45.3609 96.661C46.0674 96.661 46.5874 96.5397 46.9211 96.2971C47.2586 96.0584 47.4274 95.8026 47.4274 95.5297C47.4274 95.3327 47.3273 95.1924 47.1271 95.1091C46.923 95.0257 46.5188 94.9764 45.9143 94.9613C45.0312 94.9385 44.3522 94.8949 43.8772 94.8305Z" fill="url(#paint8_linear_135_179)"/>
<path d="M51.5781 94.0801C51.0247 94.4932 50.6773 94.732 50.536 94.7964C50.324 94.8911 50.0984 94.9385 49.8589 94.9385C49.4861 94.9385 49.1779 94.8153 48.9346 94.569C48.6952 94.3227 48.5755 93.9987 48.5755 93.5969C48.5755 93.343 48.6343 93.1232 48.7521 92.9375C48.913 92.6798 49.1917 92.4373 49.5881 92.2099C49.9885 91.9825 50.6518 91.7058 51.5781 91.3799V91.1753C51.5781 90.6561 51.4917 90.2998 51.319 90.1066C51.1503 89.9133 50.903 89.8167 50.5772 89.8167C50.3299 89.8167 50.1337 89.8811 49.9885 90.0099C49.8393 90.1388 49.7647 90.2866 49.7647 90.4533L49.7765 90.783C49.7765 90.9574 49.7294 91.0919 49.6352 91.1867C49.5449 91.2814 49.4252 91.3288 49.2761 91.3288C49.1308 91.3288 49.0111 91.2795 48.9169 91.181C48.8267 91.0824 48.7815 90.9479 48.7815 90.7774C48.7815 90.4514 48.9542 90.152 49.2996 89.8792C49.645 89.6063 50.1298 89.4699 50.7538 89.4699C51.2327 89.4699 51.6252 89.5476 51.9313 89.703C52.1629 89.8204 52.3336 90.0042 52.4435 90.2544C52.5142 90.4173 52.5495 90.7508 52.5495 91.2549V93.0228C52.5495 93.5193 52.5593 93.8243 52.579 93.938C52.5986 94.0479 52.63 94.1218 52.6732 94.1597C52.7203 94.1976 52.7732 94.2166 52.8321 94.2166C52.8949 94.2166 52.9499 94.2033 52.997 94.1768C53.0794 94.1275 53.2384 93.9892 53.4739 93.7618V94.0801C53.0343 94.6486 52.6143 94.9328 52.2139 94.9328C52.0216 94.9328 51.8685 94.8684 51.7547 94.7396C51.6409 94.6107 51.582 94.3909 51.5781 94.0801ZM51.5781 93.7106V91.7267C50.9854 91.9541 50.6027 92.1151 50.43 92.2099C50.1199 92.3766 49.8982 92.551 49.7647 92.7329C49.6313 92.9148 49.5646 93.1137 49.5646 93.3298C49.5646 93.6026 49.6489 93.83 49.8177 94.0119C49.9865 94.19 50.1808 94.2791 50.4006 94.2791C50.6989 94.2791 51.0914 94.0896 51.5781 93.7106Z" fill="url(#paint9_linear_135_179)"/>
<path d="M55.7346 86.7469V93.6538C55.7346 93.9797 55.7582 94.1957 55.8053 94.3018C55.8563 94.4079 55.9329 94.4894 56.0349 94.5463C56.137 94.5993 56.3273 94.6259 56.606 94.6259V94.8305H53.9625V94.6259C54.2098 94.6259 54.3786 94.6012 54.4688 94.552C54.5591 94.5027 54.6298 94.4212 54.6808 94.3075C54.7318 94.1938 54.7573 93.9759 54.7573 93.6538V88.9242C54.7573 88.3368 54.7436 87.9767 54.7161 87.8441C54.6886 87.7077 54.6435 87.6148 54.5807 87.5655C54.5218 87.5163 54.4453 87.4916 54.3511 87.4916C54.249 87.4916 54.1195 87.522 53.9625 87.5826L53.8624 87.3836L55.4697 86.7469H55.7346Z" fill="url(#paint10_linear_135_179)"/>
<path d="M60.2916 94.0801C59.7381 94.4932 59.3908 94.732 59.2495 94.7964C59.0375 94.8911 58.8118 94.9385 58.5724 94.9385C58.1995 94.9385 57.8914 94.8153 57.6481 94.569C57.4087 94.3227 57.2889 93.9987 57.2889 93.5969C57.2889 93.343 57.3478 93.1232 57.4656 92.9375C57.6265 92.6798 57.9052 92.4373 58.3016 92.2099C58.7019 91.9825 59.3653 91.7058 60.2916 91.3799V91.1753C60.2916 90.6561 60.2052 90.2998 60.0325 90.1066C59.8637 89.9133 59.6165 89.8167 59.2907 89.8167C59.0434 89.8167 58.8472 89.8811 58.7019 90.0099C58.5528 90.1388 58.4782 90.2866 58.4782 90.4533L58.49 90.783C58.49 90.9574 58.4429 91.0919 58.3487 91.1867C58.2584 91.2814 58.1387 91.3288 57.9896 91.3288C57.8443 91.3288 57.7246 91.2795 57.6304 91.181C57.5401 91.0824 57.495 90.9479 57.495 90.7774C57.495 90.4514 57.6677 90.152 58.0131 89.8792C58.3585 89.6063 58.8432 89.4699 59.4673 89.4699C59.9462 89.4699 60.3387 89.5476 60.6448 89.703C60.8764 89.8204 61.0471 90.0042 61.157 90.2544C61.2277 90.4173 61.263 90.7508 61.263 91.2549V93.0228C61.263 93.5193 61.2728 93.8243 61.2924 93.938C61.3121 94.0479 61.3435 94.1218 61.3866 94.1597C61.4337 94.1976 61.4867 94.2166 61.5456 94.2166C61.6084 94.2166 61.6634 94.2033 61.7105 94.1768C61.7929 94.1275 61.9518 93.9892 62.1873 93.7618V94.0801C61.7477 94.6486 61.3278 94.9328 60.9274 94.9328C60.7351 94.9328 60.582 94.8684 60.4682 94.7396C60.3544 94.6107 60.2955 94.3909 60.2916 94.0801ZM60.2916 93.7106V91.7267C59.6989 91.9541 59.3162 92.1151 59.1435 92.2099C58.8334 92.3766 58.6117 92.551 58.4782 92.7329C58.3448 92.9148 58.278 93.1137 58.278 93.3298C58.278 93.6026 58.3624 93.83 58.5312 94.0119C58.7 94.19 58.8943 94.2791 59.1141 94.2791C59.4124 94.2791 59.8049 94.0896 60.2916 93.7106Z" fill="url(#paint11_linear_135_179)"/>
<path d="M68.8343 90.5557L71.7781 93.3809C72.2608 93.8471 72.673 94.1654 73.0144 94.3359C73.3559 94.5027 73.6974 94.5974 74.0389 94.6202V94.8305H70.2414V94.6202C70.4691 94.6202 70.632 94.5842 70.7301 94.5122C70.8321 94.4364 70.8832 94.353 70.8832 94.262C70.8832 94.1711 70.8635 94.0896 70.8243 94.0176C70.789 93.9456 70.6673 93.8111 70.4593 93.614L67.7039 90.982V93.4662C67.7039 93.8565 67.7294 94.1142 67.7805 94.2393C67.8197 94.334 67.9021 94.4155 68.0277 94.4837C68.1965 94.5747 68.3751 94.6202 68.5635 94.6202H68.8343V94.8305H65.4314V94.6202H65.714C66.0437 94.6202 66.2831 94.5273 66.4322 94.3416C66.5264 94.2204 66.5735 93.9285 66.5735 93.4662V88.4864C66.5735 88.0961 66.548 87.8365 66.497 87.7077C66.4577 87.6167 66.3773 87.5371 66.2556 87.4689C66.0829 87.3779 65.9024 87.3325 65.714 87.3325H65.4314V87.1221H68.8343V87.3325H68.5635C68.379 87.3325 68.2004 87.376 68.0277 87.4632C67.9061 87.5238 67.8217 87.6148 67.7746 87.7361C67.7275 87.8573 67.7039 88.1075 67.7039 88.4864V90.8456C67.7824 90.7736 68.0513 90.5329 68.5105 90.1236C69.6762 89.0928 70.3808 88.405 70.6241 88.0601C70.7301 87.9085 70.7831 87.7759 70.7831 87.6622C70.7831 87.575 70.7419 87.4992 70.6594 87.4348C70.577 87.3666 70.4377 87.3325 70.2414 87.3325H70.0589V87.1221H72.9909V87.3325C72.8182 87.3363 72.6612 87.359 72.5199 87.4007C72.3786 87.4424 72.2059 87.5238 72.0018 87.6451C71.7977 87.7626 71.5465 87.954 71.2482 88.2193C71.1618 88.2951 70.7635 88.6835 70.053 89.3846L68.8343 90.5557Z" fill="url(#paint12_linear_135_179)"/>
<path d="M75.6933 86.7469C75.8581 86.7469 75.9974 86.8038 76.1113 86.9175C76.229 87.0274 76.2879 87.1619 76.2879 87.3211C76.2879 87.4803 76.229 87.6167 76.1113 87.7304C75.9974 87.8441 75.8581 87.9009 75.6933 87.9009C75.5284 87.9009 75.3871 87.8441 75.2694 87.7304C75.1516 87.6167 75.0927 87.4803 75.0927 87.3211C75.0927 87.1619 75.1496 87.0274 75.2635 86.9175C75.3812 86.8038 75.5245 86.7469 75.6933 86.7469ZM76.1819 89.4699V93.6538C76.1819 93.9797 76.2055 94.1976 76.2526 94.3075C76.3036 94.4136 76.3762 94.4932 76.4704 94.5463C76.5685 94.5993 76.7452 94.6259 77.0003 94.6259V94.8305H74.3803V94.6259C74.6433 94.6259 74.8199 94.6012 74.9102 94.552C75.0005 94.5027 75.0711 94.4212 75.1222 94.3075C75.1771 94.1938 75.2046 93.9759 75.2046 93.6538V91.6471C75.2046 91.0824 75.1869 90.7167 75.1516 90.55C75.1241 90.4287 75.081 90.3453 75.0221 90.2998C74.9632 90.2506 74.8827 90.2259 74.7807 90.2259C74.6708 90.2259 74.5373 90.2544 74.3803 90.3112L74.2979 90.1066L75.9229 89.4699H76.1819Z" fill="url(#paint13_linear_135_179)"/>
<path d="M79.2552 89.4699V90.6409C79.7066 89.8602 80.1697 89.4699 80.6446 89.4699C80.8605 89.4699 81.0391 89.5343 81.1804 89.6632C81.3217 89.7882 81.3924 89.9341 81.3924 90.1009C81.3924 90.2487 81.3413 90.3737 81.2393 90.4761C81.1372 90.5784 81.0156 90.6296 80.8743 90.6296C80.7369 90.6296 80.5818 90.5651 80.4091 90.4363C80.2404 90.3036 80.1148 90.2373 80.0323 90.2373C79.9617 90.2373 79.8852 90.2752 79.8027 90.351C79.6261 90.5064 79.4436 90.7622 79.2552 91.1184V93.614C79.2552 93.902 79.2925 94.1199 79.3671 94.2677C79.4181 94.3701 79.5084 94.4553 79.6379 94.5235C79.7674 94.5918 79.9538 94.6259 80.1972 94.6259V94.8305H77.436V94.6259C77.7107 94.6259 77.9148 94.5842 78.0483 94.5008C78.1464 94.4402 78.2151 94.3435 78.2543 94.2109C78.2739 94.1465 78.2838 93.9627 78.2838 93.6595V91.6414C78.2838 91.0351 78.27 90.675 78.2425 90.5613C78.219 90.4439 78.1719 90.3586 78.1012 90.3055C78.0345 90.2525 77.9501 90.2259 77.8481 90.2259C77.7264 90.2259 77.589 90.2544 77.436 90.3112L77.3771 90.1066L79.0079 89.4699H79.2552Z" fill="url(#paint14_linear_135_179)"/>
<path d="M84.7482 94.0801C84.1948 94.4932 83.8474 94.732 83.7061 94.7964C83.4942 94.8911 83.2685 94.9385 83.0291 94.9385C82.6562 94.9385 82.3481 94.8153 82.1047 94.569C81.8653 94.3227 81.7456 93.9987 81.7456 93.5969C81.7456 93.343 81.8045 93.1232 81.9222 92.9375C82.0832 92.6798 82.3618 92.4373 82.7583 92.2099C83.1586 91.9825 83.8219 91.7058 84.7482 91.3799V91.1753C84.7482 90.6561 84.6619 90.2998 84.4892 90.1066C84.3204 89.9133 84.0731 89.8167 83.7474 89.8167C83.5001 89.8167 83.3038 89.8811 83.1586 90.0099C83.0095 90.1388 82.9349 90.2866 82.9349 90.4533L82.9467 90.783C82.9467 90.9574 82.8996 91.0919 82.8054 91.1867C82.7151 91.2814 82.5954 91.3288 82.4462 91.3288C82.301 91.3288 82.1813 91.2795 82.0871 91.181C81.9968 91.0824 81.9517 90.9479 81.9517 90.7774C81.9517 90.4514 82.1244 90.152 82.4698 89.8792C82.8152 89.6063 83.2999 89.4699 83.924 89.4699C84.4028 89.4699 84.7953 89.5476 85.1015 89.703C85.3331 89.8204 85.5038 90.0042 85.6137 90.2544C85.6843 90.4173 85.7197 90.7508 85.7197 91.2549V93.0228C85.7197 93.5193 85.7295 93.8243 85.7491 93.938C85.7687 94.0479 85.8001 94.1218 85.8433 94.1597C85.8904 94.1976 85.9434 94.2166 86.0023 94.2166C86.0651 94.2166 86.12 94.2033 86.1671 94.1768C86.2495 94.1275 86.4085 93.9892 86.644 93.7618V94.0801C86.2044 94.6486 85.7844 94.9328 85.3841 94.9328C85.1918 94.9328 85.0387 94.8684 84.9249 94.7396C84.811 94.6107 84.7522 94.3909 84.7482 94.0801ZM84.7482 93.7106V91.7267C84.1556 91.9541 83.7729 92.1151 83.6002 92.2099C83.2901 92.3766 83.0683 92.551 82.9349 92.7329C82.8014 92.9148 82.7347 93.1137 82.7347 93.3298C82.7347 93.6026 82.8191 93.83 82.9879 94.0119C83.1566 94.19 83.3509 94.2791 83.5707 94.2791C83.869 94.2791 84.2615 94.0896 84.7482 93.7106Z" fill="url(#paint15_linear_135_179)"/>
<path d="M88.6222 90.5727C89.2541 89.8375 89.8566 89.4699 90.4297 89.4699C90.724 89.4699 90.9772 89.5419 91.1891 89.6859C91.4011 89.8261 91.5699 90.0592 91.6955 90.3851C91.7818 90.6125 91.825 90.9612 91.825 91.4311V93.6538C91.825 93.9835 91.8525 94.2071 91.9074 94.3246C91.9506 94.4193 92.0193 94.4932 92.1135 94.5463C92.2116 94.5993 92.3902 94.6259 92.6492 94.6259V94.8305H89.9822V94.6259H90.0941C90.3453 94.6259 90.5199 94.5899 90.6181 94.5179C90.7201 94.4421 90.7908 94.3322 90.83 94.1881C90.8457 94.1313 90.8536 93.9532 90.8536 93.6538V91.522C90.8536 91.0483 90.7888 90.7054 90.6593 90.4931C90.5337 90.2771 90.3198 90.1691 90.0175 90.1691C89.5505 90.1691 89.0853 90.4154 88.6222 90.9081V93.6538C88.6222 94.0062 88.6438 94.2241 88.687 94.3075C88.7419 94.4174 88.8165 94.4989 88.9107 94.552C89.0088 94.6012 89.2051 94.6259 89.4994 94.6259V94.8305H86.8324V94.6259H86.9501C87.2249 94.6259 87.4094 94.5595 87.5036 94.4269C87.6017 94.2905 87.6508 94.0328 87.6508 93.6538V91.721C87.6508 91.0957 87.6351 90.7148 87.6037 90.5784C87.5762 90.442 87.531 90.3491 87.4682 90.2998C87.4094 90.2506 87.3289 90.2259 87.2269 90.2259C87.117 90.2259 86.9855 90.2544 86.8324 90.3112L86.7441 90.1066L88.369 89.4699H88.6222V90.5727Z" fill="url(#paint16_linear_135_179)"/>
<path d="M96.1346 94.0801C95.5812 94.4932 95.2339 94.732 95.0926 94.7964C94.8806 94.8911 94.6549 94.9385 94.4155 94.9385C94.0426 94.9385 93.7345 94.8153 93.4912 94.569C93.2517 94.3227 93.132 93.9987 93.132 93.5969C93.132 93.343 93.1909 93.1232 93.3086 92.9375C93.4696 92.6798 93.7482 92.4373 94.1447 92.2099C94.545 91.9825 95.2083 91.7058 96.1346 91.3799V91.1753C96.1346 90.6561 96.0483 90.2998 95.8756 90.1066C95.7068 89.9133 95.4595 89.8167 95.1338 89.8167C94.8865 89.8167 94.6902 89.8811 94.545 90.0099C94.3959 90.1388 94.3213 90.2866 94.3213 90.4533L94.3331 90.783C94.3331 90.9574 94.286 91.0919 94.1918 91.1867C94.1015 91.2814 93.9818 91.3288 93.8326 91.3288C93.6874 91.3288 93.5677 91.2795 93.4735 91.181C93.3832 91.0824 93.3381 90.9479 93.3381 90.7774C93.3381 90.4514 93.5108 90.152 93.8562 89.8792C94.2016 89.6063 94.6863 89.4699 95.3104 89.4699C95.7892 89.4699 96.1817 89.5476 96.4879 89.703C96.7195 89.8204 96.8902 90.0042 97.0001 90.2544C97.0708 90.4173 97.1061 90.7508 97.1061 91.2549V93.0228C97.1061 93.5193 97.1159 93.8243 97.1355 93.938C97.1551 94.0479 97.1865 94.1218 97.2297 94.1597C97.2768 94.1976 97.3298 94.2166 97.3887 94.2166C97.4515 94.2166 97.5064 94.2033 97.5535 94.1768C97.636 94.1275 97.7949 93.9892 98.0304 93.7618V94.0801C97.5908 94.6486 97.1708 94.9328 96.7705 94.9328C96.5782 94.9328 96.4251 94.8684 96.3113 94.7396C96.1974 94.6107 96.1386 94.3909 96.1346 94.0801ZM96.1346 93.7106V91.7267C95.542 91.9541 95.1593 92.1151 94.9866 92.2099C94.6765 92.3766 94.4547 92.551 94.3213 92.7329C94.1878 92.9148 94.1211 93.1137 94.1211 93.3298C94.1211 93.6026 94.2055 93.83 94.3743 94.0119C94.5431 94.19 94.7373 94.2791 94.9571 94.2791C95.2554 94.2791 95.6479 94.0896 96.1346 93.7106Z" fill="url(#paint17_linear_135_179)"/>
<path d="M32.6484 98.2318L32.6725 98.7248H32.6115C32.5997 98.638 32.5836 98.576 32.5633 98.5388C32.5301 98.4788 32.4857 98.4349 32.43 98.407C32.3754 98.378 32.3032 98.3636 32.2132 98.3636H31.9066V99.9697C31.9066 100.099 31.921 100.18 31.9499 100.212C31.9906 100.255 32.0532 100.277 32.1378 100.277H32.2132V100.334H31.29V100.277H31.3671C31.4591 100.277 31.5244 100.25 31.5629 100.196C31.5865 100.163 31.5983 100.088 31.5983 99.9697V98.3636H31.3365C31.2349 98.3636 31.1626 98.3708 31.1198 98.3853C31.0641 98.4049 31.0165 98.4426 30.9769 98.4984C30.9373 98.5543 30.9137 98.6297 30.9062 98.7248H30.8452L30.8709 98.2318H32.6484Z" fill="url(#paint18_linear_135_179)"/>
<path d="M33.2907 98.1295V99.1682C33.4095 99.0421 33.5037 98.9615 33.5733 98.9263C33.6428 98.8902 33.7124 98.8721 33.782 98.8721C33.8655 98.8721 33.9372 98.8943 33.9972 98.9387C34.0571 98.9832 34.1015 99.053 34.1304 99.148C34.1508 99.2142 34.1609 99.3351 34.1609 99.5108V100.013C34.1609 100.103 34.1684 100.165 34.1834 100.198C34.1941 100.222 34.2123 100.242 34.238 100.257C34.2637 100.271 34.3108 100.278 34.3793 100.278V100.334H33.6568V100.278H33.6905C33.759 100.278 33.8066 100.268 33.8334 100.249C33.8601 100.228 33.8789 100.198 33.8896 100.159C33.8928 100.142 33.8944 100.094 33.8944 100.013V99.5108C33.8944 99.3558 33.8858 99.254 33.8687 99.2054C33.8526 99.1568 33.8264 99.1207 33.79 99.0969C33.7536 99.0721 33.7097 99.0597 33.6584 99.0597C33.6059 99.0597 33.5513 99.0731 33.4946 99.1C33.4378 99.1269 33.3699 99.1811 33.2907 99.2628V100.013C33.2907 100.11 33.296 100.171 33.3067 100.195C33.3185 100.218 33.3394 100.238 33.3693 100.255C33.4004 100.271 33.4534 100.278 33.5283 100.278V100.334H32.7993V100.278C32.8646 100.278 32.916 100.268 32.9535 100.249C32.9749 100.238 32.992 100.219 33.0048 100.19C33.0177 100.161 33.0241 100.102 33.0241 100.013V98.7279C33.0241 98.5656 33.0198 98.4659 33.0113 98.4287C33.0038 98.3915 32.9915 98.3661 32.9743 98.3527C32.9583 98.3393 32.9363 98.3326 32.9085 98.3326C32.886 98.3326 32.8496 98.3408 32.7993 98.3574L32.7768 98.3031L33.2168 98.1295H33.2907Z" fill="url(#paint19_linear_135_179)"/>
<path d="M34.8771 98.1295C34.922 98.1295 34.96 98.145 34.9911 98.176C35.0232 98.2059 35.0392 98.2426 35.0392 98.286C35.0392 98.3295 35.0232 98.3667 34.9911 98.3977C34.96 98.4287 34.922 98.4442 34.8771 98.4442C34.8321 98.4442 34.7936 98.4287 34.7615 98.3977C34.7293 98.3667 34.7133 98.3295 34.7133 98.286C34.7133 98.2426 34.7288 98.2059 34.7599 98.176C34.792 98.145 34.831 98.1295 34.8771 98.1295ZM35.0103 98.8721V100.013C35.0103 100.102 35.0168 100.161 35.0296 100.191C35.0435 100.22 35.0633 100.242 35.089 100.257C35.1158 100.271 35.164 100.278 35.2335 100.278V100.334H34.519V100.278C34.5907 100.278 34.6389 100.272 34.6635 100.258C34.6881 100.245 34.7074 100.222 34.7213 100.191C34.7363 100.16 34.7438 100.101 34.7438 100.013V99.4659C34.7438 99.3119 34.739 99.2121 34.7293 99.1666C34.7219 99.1336 34.7101 99.1108 34.694 99.0984C34.678 99.085 34.656 99.0783 34.6282 99.0783C34.5982 99.0783 34.5618 99.086 34.519 99.1015L34.4965 99.0457L34.9397 98.8721H35.0103Z" fill="url(#paint20_linear_135_179)"/>
<path d="M36.3687 98.8721V99.3558H36.3158C36.2751 99.2039 36.2226 99.1005 36.1584 99.0457C36.0952 98.9909 36.0144 98.9636 35.9159 98.9636C35.841 98.9636 35.7805 98.9827 35.7345 99.0209C35.6885 99.0592 35.6655 99.1015 35.6655 99.148C35.6655 99.2059 35.6826 99.2555 35.7168 99.2969C35.75 99.3393 35.8175 99.3842 35.9192 99.4318L36.1536 99.5418C36.3709 99.6442 36.4795 99.779 36.4795 99.9465C36.4795 100.076 36.4287 100.18 36.327 100.26C36.2264 100.338 36.1134 100.377 35.9882 100.377C35.8983 100.377 35.7955 100.362 35.6799 100.331C35.6446 100.321 35.6157 100.315 35.5932 100.315C35.5686 100.315 35.5493 100.329 35.5354 100.356H35.4824V99.8488H35.5354C35.5654 99.9935 35.6226 100.103 35.7072 100.176C35.7918 100.249 35.8865 100.286 35.9914 100.286C36.0653 100.286 36.1252 100.265 36.1713 100.224C36.2184 100.182 36.2419 100.131 36.2419 100.072C36.2419 100.001 36.2157 99.9408 36.1632 99.8922C36.1118 99.8436 36.0085 99.7821 35.8533 99.7077C35.6981 99.6333 35.5964 99.5661 35.5482 99.5062C35.5001 99.4473 35.476 99.3728 35.476 99.2829C35.476 99.1661 35.5172 99.0685 35.5996 98.9899C35.6831 98.9114 35.7907 98.8721 35.9224 98.8721C35.9802 98.8721 36.0503 98.884 36.1327 98.9077C36.1873 98.9232 36.2237 98.931 36.2419 98.931C36.259 98.931 36.2724 98.9274 36.282 98.9201C36.2917 98.9129 36.3029 98.8969 36.3158 98.8721H36.3687Z" fill="url(#paint21_linear_135_179)"/>
<path d="M37.8958 98.1295C37.9407 98.1295 37.9787 98.145 38.0098 98.176C38.0419 98.2059 38.0579 98.2426 38.0579 98.286C38.0579 98.3295 38.0419 98.3667 38.0098 98.3977C37.9787 98.4287 37.9407 98.4442 37.8958 98.4442C37.8508 98.4442 37.8123 98.4287 37.7801 98.3977C37.748 98.3667 37.732 98.3295 37.732 98.286C37.732 98.2426 37.7475 98.2059 37.7785 98.176C37.8107 98.145 37.8497 98.1295 37.8958 98.1295ZM38.029 98.8721V100.013C38.029 100.102 38.0354 100.161 38.0483 100.191C38.0622 100.22 38.082 100.242 38.1077 100.257C38.1345 100.271 38.1826 100.278 38.2522 100.278V100.334H37.5377V100.278C37.6094 100.278 37.6576 100.272 37.6822 100.258C37.7068 100.245 37.7261 100.222 37.74 100.191C37.755 100.16 37.7625 100.101 37.7625 100.013V99.4659C37.7625 99.3119 37.7577 99.2121 37.748 99.1666C37.7405 99.1336 37.7288 99.1108 37.7127 99.0984C37.6966 99.085 37.6747 99.0783 37.6469 99.0783C37.6169 99.0783 37.5805 99.086 37.5377 99.1015L37.5152 99.0457L37.9584 98.8721H38.029Z" fill="url(#paint22_linear_135_179)"/>
<path d="M39.3874 98.8721V99.3558H39.3344C39.2938 99.2039 39.2413 99.1005 39.1771 99.0457C39.1139 98.9909 39.0331 98.9636 38.9346 98.9636C38.8597 98.9636 38.7992 98.9827 38.7532 99.0209C38.7072 99.0592 38.6841 99.1015 38.6841 99.148C38.6841 99.2059 38.7013 99.2555 38.7355 99.2969C38.7687 99.3393 38.8361 99.3842 38.9378 99.4318L39.1723 99.5418C39.3896 99.6442 39.4982 99.779 39.4982 99.9465C39.4982 100.076 39.4474 100.18 39.3457 100.26C39.2451 100.338 39.1321 100.377 39.0069 100.377C38.917 100.377 38.8142 100.362 38.6986 100.331C38.6633 100.321 38.6344 100.315 38.6119 100.315C38.5873 100.315 38.568 100.329 38.5541 100.356H38.5011V99.8488H38.5541C38.5841 99.9935 38.6413 100.103 38.7259 100.176C38.8105 100.249 38.9052 100.286 39.0101 100.286C39.084 100.286 39.1439 100.265 39.1899 100.224C39.237 100.182 39.2606 100.131 39.2606 100.072C39.2606 100.001 39.2344 99.9408 39.1819 99.8922C39.1305 99.8436 39.0272 99.7821 38.872 99.7077C38.7168 99.6333 38.6151 99.5661 38.5669 99.5062C38.5188 99.4473 38.4947 99.3728 38.4947 99.2829C38.4947 99.1661 38.5359 99.0685 38.6183 98.9899C38.7018 98.9114 38.8094 98.8721 38.941 98.8721C38.9989 98.8721 39.069 98.884 39.1514 98.9077C39.206 98.9232 39.2424 98.931 39.2606 98.931C39.2777 98.931 39.2911 98.9274 39.3007 98.9201C39.3104 98.9129 39.3216 98.8969 39.3344 98.8721H39.3874Z" fill="url(#paint23_linear_135_179)"/>
<path d="M40.4584 98.9139H41.075V98.9713C41.0183 98.9754 40.9808 98.9853 40.9626 99.0008C40.9455 99.0163 40.9369 99.0385 40.9369 99.0674C40.9369 99.0995 40.946 99.1382 40.9642 99.1837L41.2789 100.001L41.5952 99.3356L41.5117 99.1263C41.4861 99.0643 41.4523 99.0214 41.4106 98.9977C41.387 98.9832 41.3431 98.9744 41.2789 98.9713V98.9139H41.979V98.9713C41.9019 98.9744 41.8473 98.9878 41.8152 99.0116C41.7938 99.0281 41.7831 99.0545 41.7831 99.0907C41.7831 99.1114 41.7874 99.1325 41.7959 99.1542L42.1299 99.9697L42.4398 99.1837C42.4612 99.1279 42.4719 99.0834 42.4719 99.0504C42.4719 99.0307 42.4612 99.0132 42.4398 98.9977C42.4195 98.9822 42.3788 98.9734 42.3178 98.9713V98.9139H42.7818V98.9713C42.6887 98.9847 42.6202 99.0457 42.5763 99.1542L42.085 100.377H42.0191L41.6514 99.4705L41.2227 100.377H41.1633L40.6912 99.1837C40.6602 99.1083 40.6297 99.0576 40.5997 99.0318C40.5697 99.0049 40.5226 98.9847 40.4584 98.9713V98.9139Z" fill="url(#paint24_linear_135_179)"/>
<path d="M43.3486 98.1295V99.1682C43.4675 99.0421 43.5617 98.9615 43.6312 98.9263C43.7008 98.8902 43.7704 98.8721 43.84 98.8721C43.9235 98.8721 43.9952 98.8943 44.0551 98.9387C44.1151 98.9832 44.1595 99.053 44.1884 99.148C44.2088 99.2142 44.2189 99.3351 44.2189 99.5108V100.013C44.2189 100.103 44.2264 100.165 44.2414 100.198C44.2521 100.222 44.2703 100.242 44.296 100.257C44.3217 100.271 44.3688 100.278 44.4373 100.278V100.334H43.7147V100.278H43.7485C43.817 100.278 43.8646 100.268 43.8914 100.249C43.9181 100.228 43.9369 100.198 43.9476 100.159C43.9508 100.142 43.9524 100.094 43.9524 100.013V99.5108C43.9524 99.3558 43.9438 99.254 43.9267 99.2054C43.9106 99.1568 43.8844 99.1207 43.848 99.0969C43.8116 99.0721 43.7677 99.0597 43.7163 99.0597C43.6639 99.0597 43.6093 99.0731 43.5526 99.1C43.4958 99.1269 43.4279 99.1811 43.3486 99.2628V100.013C43.3486 100.11 43.354 100.171 43.3647 100.195C43.3765 100.218 43.3973 100.238 43.4273 100.255C43.4584 100.271 43.5114 100.278 43.5863 100.278V100.334H42.8573V100.278C42.9226 100.278 42.974 100.268 43.0114 100.249C43.0329 100.238 43.05 100.219 43.0628 100.19C43.0757 100.161 43.0821 100.102 43.0821 100.013V98.7279C43.0821 98.5656 43.0778 98.4659 43.0693 98.4287C43.0618 98.3915 43.0495 98.3661 43.0323 98.3527C43.0163 98.3393 42.9943 98.3326 42.9665 98.3326C42.944 98.3326 42.9076 98.3408 42.8573 98.3574L42.8348 98.3031L43.2748 98.1295H43.3486Z" fill="url(#paint25_linear_135_179)"/>
<path d="M44.8082 99.4488C44.8071 99.6597 44.8601 99.825 44.9672 99.9449C45.0742 100.065 45.2 100.125 45.3445 100.125C45.4408 100.125 45.5243 100.099 45.595 100.049C45.6667 99.9971 45.7267 99.9093 45.7748 99.7852L45.8246 99.8162C45.8021 99.9578 45.7368 100.087 45.6287 100.204C45.5206 100.32 45.3852 100.377 45.2225 100.377C45.0458 100.377 44.8944 100.311 44.7681 100.179C44.6428 100.046 44.5802 99.8669 44.5802 99.6426C44.5802 99.3997 44.6444 99.2106 44.7729 99.0752C44.9024 98.9387 45.0646 98.8705 45.2594 98.8705C45.4243 98.8705 45.5597 98.9232 45.6656 99.0287C45.7716 99.1331 45.8246 99.2731 45.8246 99.4488H44.8082ZM44.8082 99.3589H45.489C45.4837 99.2679 45.4724 99.2039 45.4553 99.1666C45.4285 99.1088 45.3884 99.0633 45.3349 99.0302C45.2824 98.9971 45.2273 98.9806 45.1695 98.9806C45.0806 98.9806 45.0009 99.0142 44.9302 99.0814C44.8607 99.1475 44.82 99.24 44.8082 99.3589Z" fill="url(#paint26_linear_135_179)"/>
<path d="M46.4524 98.8721V99.1915C46.5755 98.9785 46.7018 98.8721 46.8314 98.8721C46.8902 98.8721 46.9389 98.8897 46.9775 98.9248C47.016 98.9589 47.0353 98.9987 47.0353 99.0442C47.0353 99.0845 47.0214 99.1186 46.9935 99.1465C46.9657 99.1744 46.9325 99.1884 46.894 99.1884C46.8565 99.1884 46.8142 99.1708 46.7671 99.1356C46.7211 99.0995 46.6869 99.0814 46.6644 99.0814C46.6451 99.0814 46.6242 99.0917 46.6018 99.1124C46.5536 99.1548 46.5038 99.2245 46.4524 99.3217V100.002C46.4524 100.081 46.4626 100.14 46.4829 100.181C46.4968 100.208 46.5215 100.232 46.5568 100.25C46.5921 100.269 46.643 100.278 46.7093 100.278V100.334H45.9563V100.278C46.0312 100.278 46.0869 100.267 46.1233 100.244C46.15 100.228 46.1688 100.201 46.1795 100.165C46.1848 100.148 46.1875 100.097 46.1875 100.015V99.4643C46.1875 99.2989 46.1837 99.2008 46.1762 99.1697C46.1698 99.1377 46.157 99.1145 46.1377 99.1C46.1195 99.0855 46.0965 99.0783 46.0687 99.0783C46.0355 99.0783 45.998 99.086 45.9563 99.1015L45.9402 99.0457L46.385 98.8721H46.4524Z" fill="url(#paint27_linear_135_179)"/>
<path d="M47.3644 99.4488C47.3634 99.6597 47.4164 99.825 47.5234 99.9449C47.6305 100.065 47.7562 100.125 47.9007 100.125C47.9971 100.125 48.0806 100.099 48.1512 100.049C48.223 99.9971 48.2829 99.9093 48.3311 99.7852L48.3808 99.8162C48.3584 99.9578 48.2931 100.087 48.185 100.204C48.0768 100.32 47.9414 100.377 47.7787 100.377C47.6021 100.377 47.4506 100.311 47.3243 100.179C47.1991 100.046 47.1364 99.8669 47.1364 99.6426C47.1364 99.3997 47.2007 99.2106 47.3291 99.0752C47.4586 98.9387 47.6208 98.8705 47.8156 98.8705C47.9805 98.8705 48.1159 98.9232 48.2219 99.0287C48.3279 99.1331 48.3808 99.2731 48.3808 99.4488H47.3644ZM47.3644 99.3589H48.0453C48.0399 99.2679 48.0287 99.2039 48.0115 99.1666C47.9848 99.1088 47.9446 99.0633 47.8911 99.0302C47.8387 98.9971 47.7835 98.9806 47.7257 98.9806C47.6369 98.9806 47.5571 99.0142 47.4865 99.0814C47.4169 99.1475 47.3762 99.24 47.3644 99.3589Z" fill="url(#paint28_linear_135_179)"/>
<path d="M49.8324 98.1295V99.1682C49.9512 99.0421 50.0454 98.9615 50.115 98.9263C50.1846 98.8902 50.2541 98.8721 50.3237 98.8721C50.4072 98.8721 50.4789 98.8943 50.5389 98.9387C50.5988 98.9832 50.6432 99.053 50.6722 99.148C50.6925 99.2142 50.7027 99.3351 50.7027 99.5108V100.013C50.7027 100.103 50.7102 100.165 50.7251 100.198C50.7358 100.222 50.754 100.242 50.7797 100.257C50.8054 100.271 50.8525 100.278 50.921 100.278V100.334H50.1985V100.278H50.2322C50.3007 100.278 50.3483 100.268 50.3751 100.249C50.4019 100.228 50.4206 100.198 50.4313 100.159C50.4345 100.142 50.4361 100.094 50.4361 100.013V99.5108C50.4361 99.3558 50.4276 99.254 50.4104 99.2054C50.3944 99.1568 50.3681 99.1207 50.3317 99.0969C50.2954 99.0721 50.2515 99.0597 50.2001 99.0597C50.1476 99.0597 50.093 99.0731 50.0363 99.1C49.9796 99.1269 49.9116 99.1811 49.8324 99.2628V100.013C49.8324 100.11 49.8377 100.171 49.8484 100.195C49.8602 100.218 49.8811 100.238 49.9111 100.255C49.9421 100.271 49.9951 100.278 50.07 100.278V100.334H49.341V100.278C49.4063 100.278 49.4577 100.268 49.4952 100.249C49.5166 100.238 49.5337 100.219 49.5466 100.19C49.5594 100.161 49.5658 100.102 49.5658 100.013V98.7279C49.5658 98.5656 49.5616 98.4659 49.553 98.4287C49.5455 98.3915 49.5332 98.3661 49.5161 98.3527C49.5 98.3393 49.4781 98.3326 49.4502 98.3326C49.4277 98.3326 49.3914 98.3408 49.341 98.3574L49.3186 98.3031L49.7585 98.1295H49.8324Z" fill="url(#paint29_linear_135_179)"/>
<path d="M51.2919 99.4488C51.2909 99.6597 51.3439 99.825 51.4509 99.9449C51.558 100.065 51.6837 100.125 51.8282 100.125C51.9246 100.125 52.0081 100.099 52.0787 100.049C52.1504 99.9971 52.2104 99.9093 52.2586 99.7852L52.3083 99.8162C52.2859 99.9578 52.2206 100.087 52.1124 100.204C52.0043 100.32 51.8689 100.377 51.7062 100.377C51.5296 100.377 51.3781 100.311 51.2518 100.179C51.1266 100.046 51.0639 99.8669 51.0639 99.6426C51.0639 99.3997 51.1282 99.2106 51.2566 99.0752C51.3861 98.9387 51.5483 98.8705 51.7431 98.8705C51.908 98.8705 52.0434 98.9232 52.1494 99.0287C52.2554 99.1331 52.3083 99.2731 52.3083 99.4488H51.2919ZM51.2919 99.3589H51.9728C51.9674 99.2679 51.9562 99.2039 51.939 99.1666C51.9123 99.1088 51.8721 99.0633 51.8186 99.0302C51.7662 98.9971 51.711 98.9806 51.6532 98.9806C51.5644 98.9806 51.4846 99.0142 51.414 99.0814C51.3444 99.1475 51.3037 99.24 51.2919 99.3589Z" fill="url(#paint30_linear_135_179)"/>
<path d="M53.3392 100.129C53.1883 100.242 53.0935 100.307 53.055 100.325C52.9972 100.351 52.9356 100.364 52.8703 100.364C52.7686 100.364 52.6846 100.33 52.6182 100.263C52.5529 100.196 52.5203 100.107 52.5203 99.9976C52.5203 99.9284 52.5363 99.8684 52.5685 99.8178C52.6123 99.7475 52.6884 99.6814 52.7965 99.6194C52.9057 99.5573 53.0866 99.4819 53.3392 99.393V99.3372C53.3392 99.1956 53.3156 99.0984 53.2685 99.0457C53.2225 98.993 53.1551 98.9667 53.0662 98.9667C52.9988 98.9667 52.9453 98.9842 52.9057 99.0194C52.865 99.0545 52.8446 99.0948 52.8446 99.1403L52.8478 99.2302C52.8478 99.2778 52.835 99.3144 52.8093 99.3403C52.7847 99.3661 52.752 99.379 52.7114 99.379C52.6718 99.379 52.6391 99.3656 52.6134 99.3387C52.5888 99.3119 52.5765 99.2752 52.5765 99.2287C52.5765 99.1398 52.6236 99.0581 52.7178 98.9837C52.812 98.9093 52.9442 98.8721 53.1144 98.8721C53.245 98.8721 53.352 98.8933 53.4355 98.9356C53.4987 98.9677 53.5452 99.0178 53.5752 99.086C53.5945 99.1305 53.6041 99.2214 53.6041 99.3589V99.8411C53.6041 99.9765 53.6068 100.06 53.6122 100.091C53.6175 100.121 53.6261 100.141 53.6378 100.151C53.6507 100.161 53.6651 100.167 53.6812 100.167C53.6983 100.167 53.7133 100.163 53.7262 100.156C53.7486 100.142 53.792 100.105 53.8562 100.043V100.129C53.7363 100.284 53.6218 100.362 53.5126 100.362C53.4601 100.362 53.4184 100.344 53.3874 100.309C53.3563 100.274 53.3403 100.214 53.3392 100.129ZM53.3392 100.029V99.4876C53.1775 99.5496 53.0732 99.5935 53.0261 99.6194C52.9415 99.6648 52.881 99.7124 52.8446 99.762C52.8082 99.8116 52.79 99.8659 52.79 99.9248C52.79 99.9992 52.8131 100.061 52.8591 100.111C52.9051 100.159 52.9581 100.184 53.0181 100.184C53.0994 100.184 53.2065 100.132 53.3392 100.029Z" fill="url(#paint31_linear_135_179)"/>
<path d="M54.3973 98.8721V99.1915C54.5204 98.9785 54.6467 98.8721 54.7763 98.8721C54.8351 98.8721 54.8839 98.8897 54.9224 98.9248C54.9609 98.9589 54.9802 98.9987 54.9802 99.0442C54.9802 99.0845 54.9663 99.1186 54.9384 99.1465C54.9106 99.1744 54.8774 99.1884 54.8389 99.1884C54.8014 99.1884 54.7591 99.1708 54.712 99.1356C54.666 99.0995 54.6318 99.0814 54.6093 99.0814C54.59 99.0814 54.5691 99.0917 54.5467 99.1124C54.4985 99.1548 54.4487 99.2245 54.3973 99.3217V100.002C54.3973 100.081 54.4075 100.14 54.4278 100.181C54.4418 100.208 54.4664 100.232 54.5017 100.25C54.537 100.269 54.5879 100.278 54.6542 100.278V100.334H53.9012V100.278C53.9761 100.278 54.0318 100.267 54.0682 100.244C54.0949 100.228 54.1137 100.201 54.1244 100.165C54.1297 100.148 54.1324 100.097 54.1324 100.015V99.4643C54.1324 99.2989 54.1286 99.2008 54.1212 99.1697C54.1147 99.1377 54.1019 99.1145 54.0826 99.1C54.0644 99.0855 54.0414 99.0783 54.0136 99.0783C53.9804 99.0783 53.9429 99.086 53.9012 99.1015L53.8851 99.0457L54.3299 98.8721H54.3973Z" fill="url(#paint32_linear_135_179)"/>
<path d="M55.4892 98.4473V98.9139H55.8328V99.0225H55.4892V99.9434C55.4892 100.035 55.5026 100.097 55.5293 100.129C55.5572 100.161 55.5925 100.177 55.6353 100.177C55.6706 100.177 55.7049 100.167 55.7381 100.146C55.7713 100.125 55.7969 100.093 55.8151 100.052H55.8778C55.8403 100.153 55.7873 100.23 55.7188 100.281C55.6503 100.332 55.5796 100.357 55.5069 100.357C55.4576 100.357 55.4094 100.344 55.3623 100.319C55.3152 100.292 55.2805 100.254 55.258 100.205C55.2355 100.156 55.2243 100.08 55.2243 99.9775V99.0225H54.9914V98.9713C55.0503 98.9486 55.1103 98.9103 55.1713 98.8566C55.2334 98.8018 55.2885 98.7372 55.3367 98.6628C55.3613 98.6235 55.3955 98.5517 55.4394 98.4473H55.4892Z" fill="url(#paint33_linear_135_179)"/>
<path d="M56.9279 98.8721V99.3558H56.8749C56.8342 99.2039 56.7818 99.1005 56.7175 99.0457C56.6544 98.9909 56.5736 98.9636 56.4751 98.9636C56.4001 98.9636 56.3397 98.9827 56.2936 99.0209C56.2476 99.0592 56.2246 99.1015 56.2246 99.148C56.2246 99.2059 56.2417 99.2555 56.276 99.2969C56.3092 99.3393 56.3766 99.3842 56.4783 99.4318L56.7127 99.5418C56.93 99.6442 57.0387 99.779 57.0387 99.9465C57.0387 100.076 56.9878 100.18 56.8861 100.26C56.7855 100.338 56.6726 100.377 56.5473 100.377C56.4574 100.377 56.3547 100.362 56.239 100.331C56.2037 100.321 56.1748 100.315 56.1523 100.315C56.1277 100.315 56.1085 100.329 56.0945 100.356H56.0415V99.8488H56.0945C56.1245 99.9935 56.1818 100.103 56.2663 100.176C56.3509 100.249 56.4456 100.286 56.5505 100.286C56.6244 100.286 56.6844 100.265 56.7304 100.224C56.7775 100.182 56.801 100.131 56.801 100.072C56.801 100.001 56.7748 99.9408 56.7224 99.8922C56.671 99.8436 56.5677 99.7821 56.4125 99.7077C56.2572 99.6333 56.1556 99.5661 56.1074 99.5062C56.0592 99.4473 56.0351 99.3728 56.0351 99.2829C56.0351 99.1661 56.0763 99.0685 56.1588 98.9899C56.2423 98.9114 56.3498 98.8721 56.4815 98.8721C56.5393 98.8721 56.6094 98.884 56.6918 98.9077C56.7464 98.9232 56.7828 98.931 56.801 98.931C56.8182 98.931 56.8315 98.9274 56.8412 98.9201C56.8508 98.9129 56.8621 98.8969 56.8749 98.8721H56.9279Z" fill="url(#paint34_linear_135_179)"/>
<path d="M58.5175 99.1744C58.6246 99.071 58.6877 99.0116 58.707 98.9961C58.7551 98.9568 58.8071 98.9263 58.8627 98.9046C58.9184 98.8829 58.9735 98.8721 59.0281 98.8721C59.1202 98.8721 59.1994 98.8979 59.2658 98.9496C59.3321 99.0013 59.3765 99.0762 59.399 99.1744C59.5093 99.0504 59.6024 98.9692 59.6784 98.931C59.7544 98.8917 59.8326 98.8721 59.9128 98.8721C59.991 98.8721 60.06 98.8917 60.12 98.931C60.181 98.9692 60.2292 99.0323 60.2645 99.1201C60.288 99.1801 60.2998 99.2741 60.2998 99.4023V100.013C60.2998 100.102 60.3068 100.163 60.3207 100.196C60.3314 100.219 60.3512 100.238 60.3801 100.255C60.409 100.271 60.4561 100.278 60.5214 100.278V100.334H59.7956V100.278H59.8261C59.8893 100.278 59.9385 100.266 59.9739 100.243C59.9985 100.226 60.0161 100.2 60.0268 100.164C60.0311 100.146 60.0333 100.096 60.0333 100.013V99.4023C60.0333 99.2865 60.0188 99.2049 59.9899 99.1573C59.9482 99.0912 59.8813 99.0581 59.7892 99.0581C59.7325 99.0581 59.6752 99.0721 59.6174 99.1C59.5607 99.1269 59.4916 99.1775 59.4103 99.2519L59.4071 99.269L59.4103 99.3356V100.013C59.4103 100.11 59.4156 100.171 59.4263 100.195C59.4381 100.218 59.4595 100.238 59.4905 100.255C59.5216 100.271 59.5746 100.278 59.6495 100.278V100.334H58.9061V100.278C58.9874 100.278 59.0431 100.269 59.0731 100.25C59.1041 100.232 59.1255 100.204 59.1373 100.167C59.1427 100.149 59.1453 100.098 59.1453 100.013V99.4023C59.1453 99.2865 59.1277 99.2033 59.0923 99.1527C59.0452 99.0865 58.9794 99.0535 58.8948 99.0535C58.837 99.0535 58.7798 99.0685 58.723 99.0984C58.6342 99.1439 58.5657 99.1951 58.5175 99.2519V100.013C58.5175 100.106 58.5239 100.167 58.5368 100.195C58.5507 100.222 58.5705 100.244 58.5962 100.258C58.6229 100.272 58.6765 100.278 58.7568 100.278V100.334H58.0294V100.278C58.0968 100.278 58.1439 100.272 58.1707 100.258C58.1974 100.244 58.2178 100.221 58.2317 100.191C58.2456 100.16 58.2526 100.101 58.2526 100.013V99.4705C58.2526 99.3144 58.2478 99.2137 58.2381 99.1682C58.2306 99.1341 58.2189 99.1108 58.2028 99.0984C58.1867 99.085 58.1648 99.0783 58.137 99.0783C58.107 99.0783 58.0711 99.086 58.0294 99.1015L58.0053 99.0457L58.4485 98.8721H58.5175V99.1744Z" fill="url(#paint35_linear_135_179)"/>
<path d="M60.8875 99.4488C60.8864 99.6597 60.9394 99.825 61.0465 99.9449C61.1535 100.065 61.2793 100.125 61.4238 100.125C61.5201 100.125 61.6036 100.099 61.6743 100.049C61.746 99.9971 61.8059 99.9093 61.8541 99.7852L61.9039 99.8162C61.8814 99.9578 61.8161 100.087 61.708 100.204C61.5999 100.32 61.4645 100.377 61.3018 100.377C61.1251 100.377 60.9737 100.311 60.8473 100.179C60.7221 100.046 60.6595 99.8669 60.6595 99.6426C60.6595 99.3997 60.7237 99.2106 60.8522 99.0752C60.9817 98.9387 61.1439 98.8705 61.3387 98.8705C61.5035 98.8705 61.639 98.9232 61.7449 99.0287C61.8509 99.1331 61.9039 99.2731 61.9039 99.4488H60.8875ZM60.8875 99.3589H61.5683C61.5629 99.2679 61.5517 99.2039 61.5346 99.1666C61.5078 99.1088 61.4677 99.0633 61.4142 99.0302C61.3617 98.9971 61.3066 98.9806 61.2488 98.9806C61.1599 98.9806 61.0802 99.0142 61.0095 99.0814C60.9399 99.1475 60.8993 99.24 60.8875 99.3589Z" fill="url(#paint36_linear_135_179)"/>
<path d="M62.3487 99.4488C62.3476 99.6597 62.4006 99.825 62.5076 99.9449C62.6147 100.065 62.7404 100.125 62.885 100.125C62.9813 100.125 63.0648 100.099 63.1354 100.049C63.2072 99.9971 63.2671 99.9093 63.3153 99.7852L63.3651 99.8162C63.3426 99.9578 63.2773 100.087 63.1692 100.204C63.061 100.32 62.9256 100.377 62.7629 100.377C62.5863 100.377 62.4348 100.311 62.3085 100.179C62.1833 100.046 62.1207 99.8669 62.1207 99.6426C62.1207 99.3997 62.1849 99.2106 62.3133 99.0752C62.4429 98.9387 62.605 98.8705 62.7999 98.8705C62.9647 98.8705 63.1001 98.9232 63.2061 99.0287C63.3121 99.1331 63.3651 99.2731 63.3651 99.4488H62.3487ZM62.3487 99.3589H63.0295C63.0241 99.2679 63.0129 99.2039 62.9958 99.1666C62.969 99.1088 62.9288 99.0633 62.8753 99.0302C62.8229 98.9971 62.7677 98.9806 62.7099 98.9806C62.6211 98.9806 62.5413 99.0142 62.4707 99.0814C62.4011 99.1475 62.3604 99.24 62.3487 99.3589Z" fill="url(#paint37_linear_135_179)"/>
<path d="M63.9897 98.4473V98.9139H64.3333V99.0225H63.9897V99.9434C63.9897 100.035 64.003 100.097 64.0298 100.129C64.0576 100.161 64.093 100.177 64.1358 100.177C64.1711 100.177 64.2054 100.167 64.2385 100.146C64.2717 100.125 64.2974 100.093 64.3156 100.052H64.3782C64.3408 100.153 64.2878 100.23 64.2193 100.281C64.1508 100.332 64.0801 100.357 64.0073 100.357C63.9581 100.357 63.9099 100.344 63.8628 100.319C63.8157 100.292 63.7809 100.254 63.7584 100.205C63.736 100.156 63.7247 100.08 63.7247 99.9775V99.0225H63.4919V98.9713C63.5508 98.9486 63.6107 98.9103 63.6717 98.8566C63.7338 98.8018 63.789 98.7372 63.8371 98.6628C63.8617 98.6235 63.896 98.5517 63.9399 98.4473H63.9897Z" fill="url(#paint38_linear_135_179)"/>
<path d="M65.4284 98.8721V99.3558H65.3754C65.3347 99.2039 65.2822 99.1005 65.218 99.0457C65.1549 98.9909 65.074 98.9636 64.9756 98.9636C64.9006 98.9636 64.8401 98.9827 64.7941 99.0209C64.7481 99.0592 64.7251 99.1015 64.7251 99.148C64.7251 99.2059 64.7422 99.2555 64.7765 99.2969C64.8096 99.3393 64.8771 99.3842 64.9788 99.4318L65.2132 99.5418C65.4305 99.6442 65.5391 99.779 65.5391 99.9465C65.5391 100.076 65.4883 100.18 65.3866 100.26C65.286 100.338 65.1731 100.377 65.0478 100.377C64.9579 100.377 64.8551 100.362 64.7395 100.331C64.7042 100.321 64.6753 100.315 64.6528 100.315C64.6282 100.315 64.6089 100.329 64.595 100.356H64.542V99.8488H64.595C64.625 99.9935 64.6823 100.103 64.7668 100.176C64.8514 100.249 64.9461 100.286 65.051 100.286C65.1249 100.286 65.1848 100.265 65.2309 100.224C65.278 100.182 65.3015 100.131 65.3015 100.072C65.3015 100.001 65.2753 99.9408 65.2228 99.8922C65.1714 99.8436 65.0681 99.7821 64.9129 99.7077C64.7577 99.6333 64.656 99.5661 64.6079 99.5062C64.5597 99.4473 64.5356 99.3728 64.5356 99.2829C64.5356 99.1661 64.5768 99.0685 64.6592 98.9899C64.7427 98.9114 64.8503 98.8721 64.982 98.8721C65.0398 98.8721 65.1099 98.884 65.1923 98.9077C65.2469 98.9232 65.2833 98.931 65.3015 98.931C65.3186 98.931 65.332 98.9274 65.3416 98.9201C65.3513 98.9129 65.3625 98.8969 65.3754 98.8721H65.4284Z" fill="url(#paint39_linear_135_179)"/>
<path d="M66.9554 98.1295C67.0003 98.1295 67.0383 98.145 67.0694 98.176C67.1015 98.2059 67.1175 98.2426 67.1175 98.286C67.1175 98.3295 67.1015 98.3667 67.0694 98.3977C67.0383 98.4287 67.0003 98.4442 66.9554 98.4442C66.9104 98.4442 66.8719 98.4287 66.8397 98.3977C66.8076 98.3667 66.7916 98.3295 66.7916 98.286C66.7916 98.2426 66.8071 98.2059 66.8381 98.176C66.8703 98.145 66.9093 98.1295 66.9554 98.1295ZM67.0886 98.8721V100.013C67.0886 100.102 67.0951 100.161 67.1079 100.191C67.1218 100.22 67.1416 100.242 67.1673 100.257C67.1941 100.271 67.2422 100.278 67.3118 100.278V100.334H66.5973V100.278C66.669 100.278 66.7172 100.272 66.7418 100.258C66.7664 100.245 66.7857 100.222 66.7996 100.191C66.8146 100.16 66.8221 100.101 66.8221 100.013V99.4659C66.8221 99.3119 66.8173 99.2121 66.8076 99.1666C66.8001 99.1336 66.7884 99.1108 66.7723 99.0984C66.7563 99.085 66.7343 99.0783 66.7065 99.0783C66.6765 99.0783 66.6401 99.086 66.5973 99.1015L66.5748 99.0457L67.018 98.8721H67.0886Z" fill="url(#paint40_linear_135_179)"/>
<path d="M67.9252 99.1728C68.0975 98.9723 68.2618 98.8721 68.4181 98.8721C68.4984 98.8721 68.5675 98.8917 68.6253 98.931C68.6831 98.9692 68.7291 99.0328 68.7634 99.1217C68.7869 99.1837 68.7987 99.2788 68.7987 99.407V100.013C68.7987 100.103 68.8062 100.164 68.8212 100.196C68.8329 100.222 68.8517 100.242 68.8774 100.257C68.9041 100.271 68.9528 100.278 69.0235 100.278V100.334H68.2961V100.278H68.3266C68.3951 100.278 68.4428 100.268 68.4695 100.249C68.4973 100.228 68.5166 100.198 68.5273 100.159C68.5316 100.143 68.5337 100.095 68.5337 100.013V99.4318C68.5337 99.3026 68.5161 99.209 68.4808 99.1511C68.4465 99.0922 68.3882 99.0628 68.3057 99.0628C68.1784 99.0628 68.0515 99.13 67.9252 99.2643V100.013C67.9252 100.109 67.9311 100.169 67.9429 100.191C67.9578 100.221 67.9782 100.244 68.0039 100.258C68.0306 100.272 68.0842 100.278 68.1644 100.278V100.334H67.4371V100.278H67.4692C67.5441 100.278 67.5944 100.26 67.6201 100.224C67.6469 100.187 67.6603 100.116 67.6603 100.013V99.486C67.6603 99.3155 67.656 99.2116 67.6474 99.1744C67.6399 99.1372 67.6276 99.1119 67.6105 99.0984C67.5944 99.085 67.5725 99.0783 67.5446 99.0783C67.5147 99.0783 67.4788 99.086 67.4371 99.1015L67.413 99.0457L67.8561 98.8721H67.9252V99.1728Z" fill="url(#paint41_linear_135_179)"/>
<path d="M70.3995 99.1744C70.5066 99.071 70.5697 99.0116 70.589 98.9961C70.6372 98.9568 70.6891 98.9263 70.7448 98.9046C70.8004 98.8829 70.8556 98.8721 70.9101 98.8721C71.0022 98.8721 71.0814 98.8979 71.1478 98.9496C71.2142 99.0013 71.2586 99.0762 71.2811 99.1744C71.3913 99.0504 71.4844 98.9692 71.5605 98.931C71.6365 98.8917 71.7146 98.8721 71.7949 98.8721C71.873 98.8721 71.9421 98.8917 72.002 98.931C72.063 98.9692 72.1112 99.0323 72.1465 99.1201C72.1701 99.1801 72.1818 99.2741 72.1818 99.4023V100.013C72.1818 100.102 72.1888 100.163 72.2027 100.196C72.2134 100.219 72.2332 100.238 72.2621 100.255C72.291 100.271 72.3381 100.278 72.4034 100.278V100.334H71.6777V100.278H71.7082C71.7713 100.278 71.8206 100.266 71.8559 100.243C71.8805 100.226 71.8982 100.2 71.9089 100.164C71.9132 100.146 71.9153 100.096 71.9153 100.013V99.4023C71.9153 99.2865 71.9009 99.2049 71.872 99.1573C71.8302 99.0912 71.7633 99.0581 71.6712 99.0581C71.6145 99.0581 71.5572 99.0721 71.4994 99.1C71.4427 99.1269 71.3737 99.1775 71.2923 99.2519L71.2891 99.269L71.2923 99.3356V100.013C71.2923 100.11 71.2977 100.171 71.3084 100.195C71.3201 100.218 71.3415 100.238 71.3726 100.255C71.4036 100.271 71.4566 100.278 71.5315 100.278V100.334H70.7881V100.278C70.8695 100.278 70.9251 100.269 70.9551 100.25C70.9862 100.232 71.0076 100.204 71.0193 100.167C71.0247 100.149 71.0274 100.098 71.0274 100.013V99.4023C71.0274 99.2865 71.0097 99.2033 70.9744 99.1527C70.9273 99.0865 70.8614 99.0535 70.7769 99.0535C70.7191 99.0535 70.6618 99.0685 70.6051 99.0984C70.5162 99.1439 70.4477 99.1951 70.3995 99.2519V100.013C70.3995 100.106 70.406 100.167 70.4188 100.195C70.4327 100.222 70.4525 100.244 70.4782 100.258C70.505 100.272 70.5585 100.278 70.6388 100.278V100.334H69.9114V100.278C69.9789 100.278 70.026 100.272 70.0527 100.258C70.0795 100.244 70.0998 100.221 70.1137 100.191C70.1276 100.16 70.1346 100.101 70.1346 100.013V99.4705C70.1346 99.3144 70.1298 99.2137 70.1202 99.1682C70.1127 99.1341 70.1009 99.1108 70.0848 99.0984C70.0688 99.085 70.0468 99.0783 70.019 99.0783C69.989 99.0783 69.9532 99.086 69.9114 99.1015L69.8873 99.0457L70.3305 98.8721H70.3995V99.1744Z" fill="url(#paint42_linear_135_179)"/>
<path d="M73.3556 100.129C73.2047 100.242 73.1099 100.307 73.0714 100.325C73.0136 100.351 72.952 100.364 72.8867 100.364C72.785 100.364 72.701 100.33 72.6347 100.263C72.5694 100.196 72.5367 100.107 72.5367 99.9976C72.5367 99.9284 72.5528 99.8684 72.5849 99.8178C72.6288 99.7475 72.7048 99.6814 72.8129 99.6194C72.9221 99.5573 73.103 99.4819 73.3556 99.393V99.3372C73.3556 99.1956 73.3321 99.0984 73.285 99.0457C73.2389 98.993 73.1715 98.9667 73.0826 98.9667C73.0152 98.9667 72.9617 98.9842 72.9221 99.0194C72.8814 99.0545 72.8611 99.0948 72.8611 99.1403L72.8643 99.2302C72.8643 99.2778 72.8514 99.3144 72.8257 99.3403C72.8011 99.3661 72.7685 99.379 72.7278 99.379C72.6882 99.379 72.6555 99.3656 72.6298 99.3387C72.6052 99.3119 72.5929 99.2752 72.5929 99.2287C72.5929 99.1398 72.64 99.0581 72.7342 98.9837C72.8284 98.9093 72.9606 98.8721 73.1308 98.8721C73.2614 98.8721 73.3684 98.8933 73.4519 98.9356C73.5151 98.9677 73.5617 99.0178 73.5916 99.086C73.6109 99.1305 73.6205 99.2214 73.6205 99.3589V99.8411C73.6205 99.9765 73.6232 100.06 73.6286 100.091C73.6339 100.121 73.6425 100.141 73.6543 100.151C73.6671 100.161 73.6816 100.167 73.6976 100.167C73.7147 100.167 73.7297 100.163 73.7426 100.156C73.7651 100.142 73.8084 100.105 73.8726 100.043V100.129C73.7527 100.284 73.6382 100.362 73.529 100.362C73.4766 100.362 73.4348 100.344 73.4038 100.309C73.3727 100.274 73.3567 100.214 73.3556 100.129ZM73.3556 100.029V99.4876C73.194 99.5496 73.0896 99.5935 73.0425 99.6194C72.9579 99.6648 72.8974 99.7124 72.8611 99.762C72.8247 99.8116 72.8065 99.8659 72.8065 99.9248C72.8065 99.9992 72.8295 100.061 72.8755 100.111C72.9215 100.159 72.9745 100.184 73.0345 100.184C73.1158 100.184 73.2229 100.132 73.3556 100.029Z" fill="url(#paint43_linear_135_179)"/>
<path d="M74.4105 98.4473V98.9139H74.7541V99.0225H74.4105V99.9434C74.4105 100.035 74.4239 100.097 74.4507 100.129C74.4785 100.161 74.5138 100.177 74.5567 100.177C74.592 100.177 74.6262 100.167 74.6594 100.146C74.6926 100.125 74.7183 100.093 74.7365 100.052H74.7991C74.7616 100.153 74.7087 100.23 74.6401 100.281C74.5716 100.332 74.501 100.357 74.4282 100.357C74.379 100.357 74.3308 100.344 74.2837 100.319C74.2366 100.292 74.2018 100.254 74.1793 100.205C74.1568 100.156 74.1456 100.08 74.1456 99.9775V99.0225H73.9128V98.9713C73.9716 98.9486 74.0316 98.9103 74.0926 98.8566C74.1547 98.8018 74.2098 98.7372 74.258 98.6628C74.2826 98.6235 74.3169 98.5517 74.3608 98.4473H74.4105Z" fill="url(#paint44_linear_135_179)"/>
<path d="M75.329 98.8721V99.1915C75.4521 98.9785 75.5784 98.8721 75.7079 98.8721C75.7668 98.8721 75.8155 98.8897 75.854 98.9248C75.8926 98.9589 75.9118 98.9987 75.9118 99.0442C75.9118 99.0845 75.8979 99.1186 75.8701 99.1465C75.8423 99.1744 75.8091 99.1884 75.7705 99.1884C75.7331 99.1884 75.6908 99.1708 75.6437 99.1356C75.5977 99.0995 75.5634 99.0814 75.5409 99.0814C75.5217 99.0814 75.5008 99.0917 75.4783 99.1124C75.4301 99.1548 75.3804 99.2245 75.329 99.3217V100.002C75.329 100.081 75.3392 100.14 75.3595 100.181C75.3734 100.208 75.398 100.232 75.4334 100.25C75.4687 100.269 75.5195 100.278 75.5859 100.278V100.334H74.8328V100.278C74.9078 100.278 74.9634 100.267 74.9998 100.244C75.0266 100.228 75.0453 100.201 75.056 100.165C75.0614 100.148 75.064 100.097 75.064 100.015V99.4643C75.064 99.2989 75.0603 99.2008 75.0528 99.1697C75.0464 99.1377 75.0335 99.1145 75.0143 99.1C74.9961 99.0855 74.9731 99.0783 74.9452 99.0783C74.912 99.0783 74.8746 99.086 74.8328 99.1015L74.8168 99.0457L75.2615 98.8721H75.329Z" fill="url(#paint45_linear_135_179)"/>
<path d="M76.3679 98.1295C76.4128 98.1295 76.4508 98.145 76.4819 98.176C76.514 98.2059 76.53 98.2426 76.53 98.286C76.53 98.3295 76.514 98.3667 76.4819 98.3977C76.4508 98.4287 76.4128 98.4442 76.3679 98.4442C76.3229 98.4442 76.2844 98.4287 76.2522 98.3977C76.2201 98.3667 76.2041 98.3295 76.2041 98.286C76.2041 98.2426 76.2196 98.2059 76.2506 98.176C76.2828 98.145 76.3218 98.1295 76.3679 98.1295ZM76.5011 98.8721V100.013C76.5011 100.102 76.5076 100.161 76.5204 100.191C76.5343 100.22 76.5541 100.242 76.5798 100.257C76.6066 100.271 76.6547 100.278 76.7243 100.278V100.334H76.0098V100.278C76.0815 100.278 76.1297 100.272 76.1543 100.258C76.1789 100.245 76.1982 100.222 76.2121 100.191C76.2271 100.16 76.2346 100.101 76.2346 100.013V99.4659C76.2346 99.3119 76.2298 99.2121 76.2201 99.1666C76.2126 99.1336 76.2009 99.1108 76.1848 99.0984C76.1688 99.085 76.1468 99.0783 76.119 99.0783C76.089 99.0783 76.0526 99.086 76.0098 99.1015L75.9873 99.0457L76.4305 98.8721H76.5011Z" fill="url(#paint46_linear_135_179)"/>
<path d="M77.3457 99.1744C77.4528 99.071 77.5159 99.0116 77.5352 98.9961C77.5834 98.9568 77.6353 98.9263 77.6909 98.9046C77.7466 98.8829 77.8017 98.8721 77.8563 98.8721C77.9484 98.8721 78.0276 98.8979 78.094 98.9496C78.1603 99.0013 78.2048 99.0762 78.2272 99.1744C78.3375 99.0504 78.4306 98.9692 78.5066 98.931C78.5826 98.8917 78.6608 98.8721 78.7411 98.8721C78.8192 98.8721 78.8882 98.8917 78.9482 98.931C79.0092 98.9692 79.0574 99.0323 79.0927 99.1201C79.1162 99.1801 79.128 99.2741 79.128 99.4023V100.013C79.128 100.102 79.135 100.163 79.1489 100.196C79.1596 100.219 79.1794 100.238 79.2083 100.255C79.2372 100.271 79.2843 100.278 79.3496 100.278V100.334H78.6238V100.278H78.6543C78.7175 100.278 78.7667 100.266 78.8021 100.243C78.8267 100.226 78.8444 100.2 78.8551 100.164C78.8593 100.146 78.8615 100.096 78.8615 100.013V99.4023C78.8615 99.2865 78.847 99.2049 78.8181 99.1573C78.7764 99.0912 78.7095 99.0581 78.6174 99.0581C78.5607 99.0581 78.5034 99.0721 78.4456 99.1C78.3889 99.1269 78.3198 99.1775 78.2385 99.2519L78.2353 99.269L78.2385 99.3356V100.013C78.2385 100.11 78.2438 100.171 78.2545 100.195C78.2663 100.218 78.2877 100.238 78.3188 100.255C78.3498 100.271 78.4028 100.278 78.4777 100.278V100.334H77.7343V100.278C77.8156 100.278 77.8713 100.269 77.9013 100.25C77.9323 100.232 77.9537 100.204 77.9655 100.167C77.9709 100.149 77.9735 100.098 77.9735 100.013V99.4023C77.9735 99.2865 77.9559 99.2033 77.9206 99.1527C77.8735 99.0865 77.8076 99.0535 77.7231 99.0535C77.6652 99.0535 77.608 99.0685 77.5512 99.0984C77.4624 99.1439 77.3939 99.1951 77.3457 99.2519V100.013C77.3457 100.106 77.3521 100.167 77.365 100.195C77.3789 100.222 77.3987 100.244 77.4244 100.258C77.4512 100.272 77.5047 100.278 77.585 100.278V100.334H76.8576V100.278C76.925 100.278 76.9721 100.272 76.9989 100.258C77.0257 100.244 77.046 100.221 77.0599 100.191C77.0738 100.16 77.0808 100.101 77.0808 100.013V99.4705C77.0808 99.3144 77.076 99.2137 77.0663 99.1682C77.0588 99.1341 77.0471 99.1108 77.031 99.0984C77.0149 99.085 76.993 99.0783 76.9652 99.0783C76.9352 99.0783 76.8993 99.086 76.8576 99.1015L76.8335 99.0457L77.2767 98.8721H77.3457V99.1744Z" fill="url(#paint47_linear_135_179)"/>
<path d="M80.1878 98.8721C80.4104 98.8721 80.5892 98.9537 80.7241 99.117C80.8386 99.2566 80.8959 99.4168 80.8959 99.5976C80.8959 99.7248 80.8643 99.8535 80.8011 99.9837C80.738 100.114 80.6507 100.212 80.5394 100.278C80.4292 100.344 80.3061 100.377 80.1701 100.377C79.9485 100.377 79.7724 100.292 79.6418 100.122C79.5316 99.978 79.4765 99.8168 79.4765 99.638C79.4765 99.5077 79.5096 99.3785 79.576 99.2504C79.6434 99.1212 79.7318 99.0261 79.8409 98.9651C79.9501 98.9031 80.0657 98.8721 80.1878 98.8721ZM80.138 98.9729C80.0813 98.9729 80.024 98.9894 79.9662 99.0225C79.9095 99.0545 79.8634 99.1114 79.8281 99.193C79.7928 99.2747 79.7751 99.3796 79.7751 99.5077C79.7751 99.7144 79.8174 99.8927 79.902 100.043C79.9876 100.192 80.1 100.267 80.2392 100.267C80.343 100.267 80.4286 100.226 80.4961 100.143C80.5635 100.061 80.5972 99.9186 80.5972 99.717C80.5972 99.4648 80.541 99.2664 80.4286 99.1217C80.3526 99.0225 80.2557 98.9729 80.138 98.9729Z" fill="url(#paint48_linear_135_179)"/>
<path d="M81.5414 99.1728C81.7137 98.9723 81.878 98.8721 82.0343 98.8721C82.1146 98.8721 82.1836 98.8917 82.2414 98.931C82.2992 98.9692 82.3453 99.0328 82.3795 99.1217C82.4031 99.1837 82.4149 99.2788 82.4149 99.407V100.013C82.4149 100.103 82.4223 100.164 82.4373 100.196C82.4491 100.222 82.4678 100.242 82.4935 100.257C82.5203 100.271 82.569 100.278 82.6396 100.278V100.334H81.9123V100.278H81.9428C82.0113 100.278 82.0589 100.268 82.0857 100.249C82.1135 100.228 82.1328 100.198 82.1435 100.159C82.1478 100.143 82.1499 100.095 82.1499 100.013V99.4318C82.1499 99.3026 82.1323 99.209 82.0969 99.1511C82.0627 99.0922 82.0043 99.0628 81.9219 99.0628C81.7945 99.0628 81.6677 99.13 81.5414 99.2643V100.013C81.5414 100.109 81.5472 100.169 81.559 100.191C81.574 100.221 81.5943 100.244 81.62 100.258C81.6468 100.272 81.7003 100.278 81.7806 100.278V100.334H81.0532V100.278H81.0853C81.1603 100.278 81.2106 100.26 81.2363 100.224C81.263 100.187 81.2764 100.116 81.2764 100.013V99.486C81.2764 99.3155 81.2721 99.2116 81.2636 99.1744C81.2561 99.1372 81.2438 99.1119 81.2266 99.0984C81.2106 99.085 81.1886 99.0783 81.1608 99.0783C81.1308 99.0783 81.095 99.086 81.0532 99.1015L81.0291 99.0457L81.4723 98.8721H81.5414V99.1728Z" fill="url(#paint49_linear_135_179)"/>
<path d="M82.6734 98.9139H83.359V98.9713H83.3253C83.2771 98.9713 83.2407 98.9816 83.2161 99.0023C83.1925 99.0219 83.1808 99.0468 83.1808 99.0767C83.1808 99.117 83.1984 99.1728 83.2337 99.2442L83.5918 99.9604L83.921 99.1759C83.9392 99.1336 83.9483 99.0917 83.9483 99.0504C83.9483 99.0318 83.9445 99.0178 83.937 99.0085C83.9285 98.9971 83.9151 98.9884 83.8969 98.9822C83.8787 98.9749 83.8466 98.9713 83.8006 98.9713V98.9139H84.279V98.9713C84.2394 98.9754 84.2089 98.9837 84.1875 98.9961C84.1661 99.0085 84.1426 99.0318 84.1169 99.0659C84.1072 99.0803 84.089 99.1201 84.0623 99.1853L83.4634 100.602C83.4056 100.74 83.3296 100.844 83.2354 100.914C83.1422 100.984 83.0523 101.019 82.9656 101.019C82.9024 101.019 82.8505 101.002 82.8098 100.967C82.7692 100.931 82.7488 100.891 82.7488 100.846C82.7488 100.802 82.7633 100.767 82.7922 100.74C82.8222 100.714 82.8628 100.702 82.9142 100.702C82.9495 100.702 82.9977 100.713 83.0587 100.736C83.1015 100.751 83.1283 100.759 83.139 100.759C83.1711 100.759 83.2059 100.743 83.2434 100.711C83.2819 100.679 83.3205 100.617 83.359 100.525L83.4634 100.278L82.9351 99.207C82.919 99.1749 82.8933 99.1351 82.858 99.0876C82.8313 99.0514 82.8093 99.0271 82.7922 99.0147C82.7676 98.9982 82.728 98.9837 82.6734 98.9713V98.9139Z" fill="url(#paint50_linear_135_179)"/>
<defs>
<filter id="filter0_d_135_179" x="0" y="20.7443" width="85.936" height="68.9814" filterUnits="userSpaceOnUse" color-interpolation-filters="sRGB">
<feFlood flood-opacity="0" result="BackgroundImageFix"/>
<feColorMatrix in="SourceAlpha" type="matrix" values="0 0 0 0 0 0 0 0 0 0 0 0 0 0 0 0 0 0 127 0" result="hardAlpha"/>
<feOffset dy="4"/>
<feGaussianBlur stdDeviation="2"/>
<feComposite in2="hardAlpha" operator="out"/>
<feColorMatrix type="matrix" values="0 0 0 0 0 0 0 0 0 0 0 0 0 0 0 0 0 0 0.25 0"/>
<feBlend mode="normal" in2="BackgroundImageFix" result="effect1_dropShadow_135_179"/>
<feBlend mode="normal" in="SourceGraphic" in2="effect1_dropShadow_135_179" result="shape"/>
</filter>
<filter id="filter1_d_135_179" x="57.2183" y="36.4082" width="63.6616" height="52.1627" filterUnits="userSpaceOnUse" color-interpolation-filters="sRGB">
<feFlood flood-opacity="0" result="BackgroundImageFix"/>
<feColorMatrix in="SourceAlpha" type="matrix" values="0 0 0 0 0 0 0 0 0 0 0 0 0 0 0 0 0 0 127 0" result="hardAlpha"/>
<feOffset dy="4"/>
<feGaussianBlur stdDeviation="2"/>
<feComposite in2="hardAlpha" operator="out"/>
<feColorMatrix type="matrix" values="0 0 0 0 0 0 0 0 0 0 0 0 0 0 0 0 0 0 0.25 0"/>
<feBlend mode="normal" in2="BackgroundImageFix" result="effect1_dropShadow_135_179"/>
<feBlend mode="normal" in="SourceGraphic" in2="effect1_dropShadow_135_179" result="shape"/>
</filter>
<linearGradient id="paint0_linear_135_179" x1="155.598" y1="52.1653" x2="-49.1662" y2="52.1653" gradientUnits="userSpaceOnUse">
<stop offset="0.471873" stop-color="#B93B5E"/>
<stop offset="0.596383" stop-color="#DD7D9A"/>
<stop offset="0.653257" stop-color="#E388A5"/>
<stop offset="0.753173" stop-color="#F6AAC4"/>
<stop offset="0.816196" stop-color="#D97593"/>
</linearGradient>
<linearGradient id="paint1_linear_135_179" x1="33.7492" y1="21.6965" x2="124.262" y2="21.6965" gradientUnits="userSpaceOnUse">
<stop offset="0.45" stop-color="#B93B5E"/>
<stop offset="0.68" stop-color="#F6AAC4"/>
</linearGradient>
<linearGradient id="paint2_linear_135_179" x1="1.84982" y1="15.3462" x2="56.0377" y2="15.3462" gradientUnits="userSpaceOnUse">
<stop offset="0.755" stop-color="#B93B5E"/>
<stop offset="1" stop-color="#F6AAC4"/>
</linearGradient>
<linearGradient id="paint3_linear_135_179" x1="54.1392" y1="4.49704" x2="94.899" y2="4.4219" gradientUnits="userSpaceOnUse">
<stop offset="0.35" stop-color="#F6AAC4"/>
<stop offset="0.577339" stop-color="#D4748C"/>
</linearGradient>
<linearGradient id="paint4_linear_135_179" x1="4.07489" y1="56.8022" x2="132.725" y2="56.8022" gradientUnits="userSpaceOnUse">
<stop offset="0.499809" stop-color="#B93B5E"/>
<stop offset="0.611756" stop-color="#D77291"/>
<stop offset="0.690468" stop-color="#E993AF"/>
<stop offset="0.912613" stop-color="#F6AAC4"/>
</linearGradient>
<linearGradient id="paint5_linear_135_179" x1="23.6826" y1="91.5942" x2="23.6826" y2="104.116" gradientUnits="userSpaceOnUse">
<stop offset="0.141284" stop-color="white"/>
<stop offset="0.362652" stop-color="#E3C087"/>
<stop offset="0.401151" stop-color="#EDD7B3"/>
<stop offset="0.66" stop-color="white"/>
</linearGradient>
<linearGradient id="paint6_linear_135_179" x1="23.6826" y1="91.5942" x2="23.6826" y2="104.116" gradientUnits="userSpaceOnUse">
<stop offset="0.141284" stop-color="white"/>
<stop offset="0.362652" stop-color="#E3C087"/>
<stop offset="0.401151" stop-color="#EDD7B3"/>
<stop offset="0.66" stop-color="white"/>
</linearGradient>
<linearGradient id="paint7_linear_135_179" x1="23.6826" y1="91.5942" x2="23.6826" y2="104.116" gradientUnits="userSpaceOnUse">
<stop offset="0.141284" stop-color="white"/>
<stop offset="0.362652" stop-color="#E3C087"/>
<stop offset="0.401151" stop-color="#EDD7B3"/>
<stop offset="0.66" stop-color="white"/>
</linearGradient>
<linearGradient id="paint8_linear_135_179" x1="23.6826" y1="91.5942" x2="23.6826" y2="104.116" gradientUnits="userSpaceOnUse">
<stop offset="0.141284" stop-color="white"/>
<stop offset="0.362652" stop-color="#E3C087"/>
<stop offset="0.401151" stop-color="#EDD7B3"/>
<stop offset="0.66" stop-color="white"/>
</linearGradient>
<linearGradient id="paint9_linear_135_179" x1="23.6826" y1="91.5942" x2="23.6826" y2="104.116" gradientUnits="userSpaceOnUse">
<stop offset="0.141284" stop-color="white"/>
<stop offset="0.362652" stop-color="#E3C087"/>
<stop offset="0.401151" stop-color="#EDD7B3"/>
<stop offset="0.66" stop-color="white"/>
</linearGradient>
<linearGradient id="paint10_linear_135_179" x1="23.6826" y1="91.5942" x2="23.6826" y2="104.116" gradientUnits="userSpaceOnUse">
<stop offset="0.141284" stop-color="white"/>
<stop offset="0.362652" stop-color="#E3C087"/>
<stop offset="0.401151" stop-color="#EDD7B3"/>
<stop offset="0.66" stop-color="white"/>
</linearGradient>
<linearGradient id="paint11_linear_135_179" x1="23.6826" y1="91.5942" x2="23.6826" y2="104.116" gradientUnits="userSpaceOnUse">
<stop offset="0.141284" stop-color="white"/>
<stop offset="0.362652" stop-color="#E3C087"/>
<stop offset="0.401151" stop-color="#EDD7B3"/>
<stop offset="0.66" stop-color="white"/>
</linearGradient>
<linearGradient id="paint12_linear_135_179" x1="23.6826" y1="91.5942" x2="23.6826" y2="104.116" gradientUnits="userSpaceOnUse">
<stop offset="0.141284" stop-color="white"/>
<stop offset="0.362652" stop-color="#E3C087"/>
<stop offset="0.401151" stop-color="#EDD7B3"/>
<stop offset="0.66" stop-color="white"/>
</linearGradient>
<linearGradient id="paint13_linear_135_179" x1="23.6826" y1="91.5942" x2="23.6826" y2="104.116" gradientUnits="userSpaceOnUse">
<stop offset="0.141284" stop-color="white"/>
<stop offset="0.362652" stop-color="#E3C087"/>
<stop offset="0.401151" stop-color="#EDD7B3"/>
<stop offset="0.66" stop-color="white"/>
</linearGradient>
<linearGradient id="paint14_linear_135_179" x1="23.6826" y1="91.5942" x2="23.6826" y2="104.116" gradientUnits="userSpaceOnUse">
<stop offset="0.141284" stop-color="white"/>
<stop offset="0.362652" stop-color="#E3C087"/>
<stop offset="0.401151" stop-color="#EDD7B3"/>
<stop offset="0.66" stop-color="white"/>
</linearGradient>
<linearGradient id="paint15_linear_135_179" x1="23.6826" y1="91.5942" x2="23.6826" y2="104.116" gradientUnits="userSpaceOnUse">
<stop offset="0.141284" stop-color="white"/>
<stop offset="0.362652" stop-color="#E3C087"/>
<stop offset="0.401151" stop-color="#EDD7B3"/>
<stop offset="0.66" stop-color="white"/>
</linearGradient>
<linearGradient id="paint16_linear_135_179" x1="23.6826" y1="91.5942" x2="23.6826" y2="104.116" gradientUnits="userSpaceOnUse">
<stop offset="0.141284" stop-color="white"/>
<stop offset="0.362652" stop-color="#E3C087"/>
<stop offset="0.401151" stop-color="#EDD7B3"/>
<stop offset="0.66" stop-color="white"/>
</linearGradient>
<linearGradient id="paint17_linear_135_179" x1="23.6826" y1="91.5942" x2="23.6826" y2="104.116" gradientUnits="userSpaceOnUse">
<stop offset="0.141284" stop-color="white"/>
<stop offset="0.362652" stop-color="#E3C087"/>
<stop offset="0.401151" stop-color="#EDD7B3"/>
<stop offset="0.66" stop-color="white"/>
</linearGradient>
<linearGradient id="paint18_linear_135_179" x1="23.6826" y1="91.5942" x2="23.6826" y2="104.116" gradientUnits="userSpaceOnUse">
<stop offset="0.141284" stop-color="white"/>
<stop offset="0.362652" stop-color="#E3C087"/>
<stop offset="0.401151" stop-color="#EDD7B3"/>
<stop offset="0.66" stop-color="white"/>
</linearGradient>
<linearGradient id="paint19_linear_135_179" x1="23.6826" y1="91.5942" x2="23.6826" y2="104.116" gradientUnits="userSpaceOnUse">
<stop offset="0.141284" stop-color="white"/>
<stop offset="0.362652" stop-color="#E3C087"/>
<stop offset="0.401151" stop-color="#EDD7B3"/>
<stop offset="0.66" stop-color="white"/>
</linearGradient>
<linearGradient id="paint20_linear_135_179" x1="23.6826" y1="91.5942" x2="23.6826" y2="104.116" gradientUnits="userSpaceOnUse">
<stop offset="0.141284" stop-color="white"/>
<stop offset="0.362652" stop-color="#E3C087"/>
<stop offset="0.401151" stop-color="#EDD7B3"/>
<stop offset="0.66" stop-color="white"/>
</linearGradient>
<linearGradient id="paint21_linear_135_179" x1="23.6826" y1="91.5942" x2="23.6826" y2="104.116" gradientUnits="userSpaceOnUse">
<stop offset="0.141284" stop-color="white"/>
<stop offset="0.362652" stop-color="#E3C087"/>
<stop offset="0.401151" stop-color="#EDD7B3"/>
<stop offset="0.66" stop-color="white"/>
</linearGradient>
<linearGradient id="paint22_linear_135_179" x1="23.6826" y1="91.5942" x2="23.6826" y2="104.116" gradientUnits="userSpaceOnUse">
<stop offset="0.141284" stop-color="white"/>
<stop offset="0.362652" stop-color="#E3C087"/>
<stop offset="0.401151" stop-color="#EDD7B3"/>
<stop offset="0.66" stop-color="white"/>
</linearGradient>
<linearGradient id="paint23_linear_135_179" x1="23.6826" y1="91.5942" x2="23.6826" y2="104.116" gradientUnits="userSpaceOnUse">
<stop offset="0.141284" stop-color="white"/>
<stop offset="0.362652" stop-color="#E3C087"/>
<stop offset="0.401151" stop-color="#EDD7B3"/>
<stop offset="0.66" stop-color="white"/>
</linearGradient>
<linearGradient id="paint24_linear_135_179" x1="23.6826" y1="91.5942" x2="23.6826" y2="104.116" gradientUnits="userSpaceOnUse">
<stop offset="0.141284" stop-color="white"/>
<stop offset="0.362652" stop-color="#E3C087"/>
<stop offset="0.401151" stop-color="#EDD7B3"/>
<stop offset="0.66" stop-color="white"/>
</linearGradient>
<linearGradient id="paint25_linear_135_179" x1="23.6826" y1="91.5942" x2="23.6826" y2="104.116" gradientUnits="userSpaceOnUse">
<stop offset="0.141284" stop-color="white"/>
<stop offset="0.362652" stop-color="#E3C087"/>
<stop offset="0.401151" stop-color="#EDD7B3"/>
<stop offset="0.66" stop-color="white"/>
</linearGradient>
<linearGradient id="paint26_linear_135_179" x1="23.6826" y1="91.5942" x2="23.6826" y2="104.116" gradientUnits="userSpaceOnUse">
<stop offset="0.141284" stop-color="white"/>
<stop offset="0.362652" stop-color="#E3C087"/>
<stop offset="0.401151" stop-color="#EDD7B3"/>
<stop offset="0.66" stop-color="white"/>
</linearGradient>
<linearGradient id="paint27_linear_135_179" x1="23.6826" y1="91.5942" x2="23.6826" y2="104.116" gradientUnits="userSpaceOnUse">
<stop offset="0.141284" stop-color="white"/>
<stop offset="0.362652" stop-color="#E3C087"/>
<stop offset="0.401151" stop-color="#EDD7B3"/>
<stop offset="0.66" stop-color="white"/>
</linearGradient>
<linearGradient id="paint28_linear_135_179" x1="23.6826" y1="91.5942" x2="23.6826" y2="104.116" gradientUnits="userSpaceOnUse">
<stop offset="0.141284" stop-color="white"/>
<stop offset="0.362652" stop-color="#E3C087"/>
<stop offset="0.401151" stop-color="#EDD7B3"/>
<stop offset="0.66" stop-color="white"/>
</linearGradient>
<linearGradient id="paint29_linear_135_179" x1="23.6826" y1="91.5942" x2="23.6826" y2="104.116" gradientUnits="userSpaceOnUse">
<stop offset="0.141284" stop-color="white"/>
<stop offset="0.362652" stop-color="#E3C087"/>
<stop offset="0.401151" stop-color="#EDD7B3"/>
<stop offset="0.66" stop-color="white"/>
</linearGradient>
<linearGradient id="paint30_linear_135_179" x1="23.6826" y1="91.5942" x2="23.6826" y2="104.116" gradientUnits="userSpaceOnUse">
<stop offset="0.141284" stop-color="white"/>
<stop offset="0.362652" stop-color="#E3C087"/>
<stop offset="0.401151" stop-color="#EDD7B3"/>
<stop offset="0.66" stop-color="white"/>
</linearGradient>
<linearGradient id="paint31_linear_135_179" x1="23.6826" y1="91.5942" x2="23.6826" y2="104.116" gradientUnits="userSpaceOnUse">
<stop offset="0.141284" stop-color="white"/>
<stop offset="0.362652" stop-color="#E3C087"/>
<stop offset="0.401151" stop-color="#EDD7B3"/>
<stop offset="0.66" stop-color="white"/>
</linearGradient>
<linearGradient id="paint32_linear_135_179" x1="23.6826" y1="91.5942" x2="23.6826" y2="104.116" gradientUnits="userSpaceOnUse">
<stop offset="0.141284" stop-color="white"/>
<stop offset="0.362652" stop-color="#E3C087"/>
<stop offset="0.401151" stop-color="#EDD7B3"/>
<stop offset="0.66" stop-color="white"/>
</linearGradient>
<linearGradient id="paint33_linear_135_179" x1="23.6826" y1="91.5942" x2="23.6826" y2="104.116" gradientUnits="userSpaceOnUse">
<stop offset="0.141284" stop-color="white"/>
<stop offset="0.362652" stop-color="#E3C087"/>
<stop offset="0.401151" stop-color="#EDD7B3"/>
<stop offset="0.66" stop-color="white"/>
</linearGradient>
<linearGradient id="paint34_linear_135_179" x1="23.6826" y1="91.5942" x2="23.6826" y2="104.116" gradientUnits="userSpaceOnUse">
<stop offset="0.141284" stop-color="white"/>
<stop offset="0.362652" stop-color="#E3C087"/>
<stop offset="0.401151" stop-color="#EDD7B3"/>
<stop offset="0.66" stop-color="white"/>
</linearGradient>
<linearGradient id="paint35_linear_135_179" x1="23.6826" y1="91.5942" x2="23.6826" y2="104.116" gradientUnits="userSpaceOnUse">
<stop offset="0.141284" stop-color="white"/>
<stop offset="0.362652" stop-color="#E3C087"/>
<stop offset="0.401151" stop-color="#EDD7B3"/>
<stop offset="0.66" stop-color="white"/>
</linearGradient>
<linearGradient id="paint36_linear_135_179" x1="23.6826" y1="91.5942" x2="23.6826" y2="104.116" gradientUnits="userSpaceOnUse">
<stop offset="0.141284" stop-color="white"/>
<stop offset="0.362652" stop-color="#E3C087"/>
<stop offset="0.401151" stop-color="#EDD7B3"/>
<stop offset="0.66" stop-color="white"/>
</linearGradient>
<linearGradient id="paint37_linear_135_179" x1="23.6826" y1="91.5942" x2="23.6826" y2="104.116" gradientUnits="userSpaceOnUse">
<stop offset="0.141284" stop-color="white"/>
<stop offset="0.362652" stop-color="#E3C087"/>
<stop offset="0.401151" stop-color="#EDD7B3"/>
<stop offset="0.66" stop-color="white"/>
</linearGradient>
<linearGradient id="paint38_linear_135_179" x1="23.6826" y1="91.5942" x2="23.6826" y2="104.116" gradientUnits="userSpaceOnUse">
<stop offset="0.141284" stop-color="white"/>
<stop offset="0.362652" stop-color="#E3C087"/>
<stop offset="0.401151" stop-color="#EDD7B3"/>
<stop offset="0.66" stop-color="white"/>
</linearGradient>
<linearGradient id="paint39_linear_135_179" x1="23.6826" y1="91.5942" x2="23.6826" y2="104.116" gradientUnits="userSpaceOnUse">
<stop offset="0.141284" stop-color="white"/>
<stop offset="0.362652" stop-color="#E3C087"/>
<stop offset="0.401151" stop-color="#EDD7B3"/>
<stop offset="0.66" stop-color="white"/>
</linearGradient>
<linearGradient id="paint40_linear_135_179" x1="23.6826" y1="91.5942" x2="23.6826" y2="104.116" gradientUnits="userSpaceOnUse">
<stop offset="0.141284" stop-color="white"/>
<stop offset="0.362652" stop-color="#E3C087"/>
<stop offset="0.401151" stop-color="#EDD7B3"/>
<stop offset="0.66" stop-color="white"/>
</linearGradient>
<linearGradient id="paint41_linear_135_179" x1="23.6826" y1="91.5942" x2="23.6826" y2="104.116" gradientUnits="userSpaceOnUse">
<stop offset="0.141284" stop-color="white"/>
<stop offset="0.362652" stop-color="#E3C087"/>
<stop offset="0.401151" stop-color="#EDD7B3"/>
<stop offset="0.66" stop-color="white"/>
</linearGradient>
<linearGradient id="paint42_linear_135_179" x1="23.6826" y1="91.5942" x2="23.6826" y2="104.116" gradientUnits="userSpaceOnUse">
<stop offset="0.141284" stop-color="white"/>
<stop offset="0.362652" stop-color="#E3C087"/>
<stop offset="0.401151" stop-color="#EDD7B3"/>
<stop offset="0.66" stop-color="white"/>
</linearGradient>
<linearGradient id="paint43_linear_135_179" x1="23.6826" y1="91.5942" x2="23.6826" y2="104.116" gradientUnits="userSpaceOnUse">
<stop offset="0.141284" stop-color="white"/>
<stop offset="0.362652" stop-color="#E3C087"/>
<stop offset="0.401151" stop-color="#EDD7B3"/>
<stop offset="0.66" stop-color="white"/>
</linearGradient>
<linearGradient id="paint44_linear_135_179" x1="23.6826" y1="91.5942" x2="23.6826" y2="104.116" gradientUnits="userSpaceOnUse">
<stop offset="0.141284" stop-color="white"/>
<stop offset="0.362652" stop-color="#E3C087"/>
<stop offset="0.401151" stop-color="#EDD7B3"/>
<stop offset="0.66" stop-color="white"/>
</linearGradient>
<linearGradient id="paint45_linear_135_179" x1="23.6826" y1="91.5942" x2="23.6826" y2="104.116" gradientUnits="userSpaceOnUse">
<stop offset="0.141284" stop-color="white"/>
<stop offset="0.362652" stop-color="#E3C087"/>
<stop offset="0.401151" stop-color="#EDD7B3"/>
<stop offset="0.66" stop-color="white"/>
</linearGradient>
<linearGradient id="paint46_linear_135_179" x1="23.6826" y1="91.5942" x2="23.6826" y2="104.116" gradientUnits="userSpaceOnUse">
<stop offset="0.141284" stop-color="white"/>
<stop offset="0.362652" stop-color="#E3C087"/>
<stop offset="0.401151" stop-color="#EDD7B3"/>
<stop offset="0.66" stop-color="white"/>
</linearGradient>
<linearGradient id="paint47_linear_135_179" x1="23.6826" y1="91.5942" x2="23.6826" y2="104.116" gradientUnits="userSpaceOnUse">
<stop offset="0.141284" stop-color="white"/>
<stop offset="0.362652" stop-color="#E3C087"/>
<stop offset="0.401151" stop-color="#EDD7B3"/>
<stop offset="0.66" stop-color="white"/>
</linearGradient>
<linearGradient id="paint48_linear_135_179" x1="23.6826" y1="91.5942" x2="23.6826" y2="104.116" gradientUnits="userSpaceOnUse">
<stop offset="0.141284" stop-color="white"/>
<stop offset="0.362652" stop-color="#E3C087"/>
<stop offset="0.401151" stop-color="#EDD7B3"/>
<stop offset="0.66" stop-color="white"/>
</linearGradient>
<linearGradient id="paint49_linear_135_179" x1="23.6826" y1="91.5942" x2="23.6826" y2="104.116" gradientUnits="userSpaceOnUse">
<stop offset="0.141284" stop-color="white"/>
<stop offset="0.362652" stop-color="#E3C087"/>
<stop offset="0.401151" stop-color="#EDD7B3"/>
<stop offset="0.66" stop-color="white"/>
</linearGradient>
<linearGradient id="paint50_linear_135_179" x1="23.6826" y1="91.5942" x2="23.6826" y2="104.116" gradientUnits="userSpaceOnUse">
<stop offset="0.141284" stop-color="white"/>
<stop offset="0.362652" stop-color="#E3C087"/>
<stop offset="0.401151" stop-color="#EDD7B3"/>
<stop offset="0.66" stop-color="white"/>
</linearGradient>
</defs>
</svg>
