<svg width="77" height="60" viewBox="0 0 77 60" fill="none" xmlns="http://www.w3.org/2000/svg">
<g filter="url(#filter0_d_120_163)">
<path d="M28.2478 21.6255C28.2478 21.6255 24.3368 11.3545 15.0884 13.2426C8.57944 14.5713 1.05944 21.4016 5.33546 32.1288C8.7401 40.6702 20.6351 50.2775 23.9726 51.1805C27.3107 52.0834 43.8285 44.8742 43.8285 44.8742C43.8285 44.8742 32.8065 41.8206 37.0149 30.071C37.0149 30.071 42.2921 21.7069 51.5772 26.5528C51.5772 26.5528 48.8833 19.0498 40.0714 17.6576C31.9391 17.6576 28.9155 22.0055 28.2478 21.6255Z" fill="url(#paint0_linear_120_163)"/>
</g>
<path d="M54.4298 10.3305C54.4298 10.3305 52.7573 8.42117 50.9638 8.24574C48.2446 7.97925 46.9785 11.4763 47.9751 13.4212C48.9438 15.3116 53.315 18.7926 53.8692 18.8886L54.2685 18.9852C54.2685 18.9852 59.5874 16.2476 60.7907 13.8847C61.9939 11.5219 60.7814 9.24118 58.5204 8.58773C56.26 7.93428 54.9025 10.1495 54.6207 10.3399" fill="url(#paint1_linear_120_163)"/>
<path d="M33.3928 7.15695C33.3928 7.15695 32.1305 5.71924 30.7763 5.58686C28.7235 5.38645 27.7678 8.01978 28.5201 9.48439C29.2513 10.9079 32.5513 13.5296 32.9693 13.6019L33.2708 13.6746C33.2708 13.6746 37.2859 11.613 38.1945 9.83353C39.1031 8.05406 38.1873 6.33683 36.481 5.84476C34.7748 5.35269 33.7498 7.02088 33.5369 7.16434" fill="url(#paint2_linear_120_163)"/>
<path d="M45.5922 1.06294C45.5922 1.06294 44.8121 0.0744795 43.9496 0.00437619C42.6413 -0.102181 41.9819 1.76304 42.4351 2.7786C42.876 3.76565 44.9358 5.55095 45.2016 5.59488L45.393 5.64068C45.393 5.64068 47.9973 4.12599 48.6107 2.86132C49.2242 1.59666 48.6714 0.406305 47.5899 0.0894381C46.5085 -0.227429 45.8225 0.961062 45.6839 1.06528" fill="url(#paint3_linear_120_163)"/>
<g filter="url(#filter1_d_120_163)">
<path d="M53.5969 28.1336C53.5969 28.1336 49.3705 25.0186 45.2289 26.479C37.8809 28.1336 36.6631 39.5277 43.2917 43.9375C48.7539 48.3565 57.6026 50.6265 59.1047 50.5316C59.1047 50.5316 71.6149 42.7426 72.1493 35.7725C74.5541 30.3955 70.7465 24.5539 63.9997 22.8944C57.7205 22.2305 54.6986 27.3746 54.0979 28.0387" fill="url(#paint4_linear_120_163)"/>
</g>
<defs>
<filter id="filter0_d_120_163" x="0.0825195" y="13.0109" width="55.4946" height="46.2478" filterUnits="userSpaceOnUse" color-interpolation-filters="sRGB">
<feFlood flood-opacity="0" result="BackgroundImageFix"/>
<feColorMatrix in="SourceAlpha" type="matrix" values="0 0 0 0 0 0 0 0 0 0 0 0 0 0 0 0 0 0 127 0" result="hardAlpha"/>
<feOffset dy="4"/>
<feGaussianBlur stdDeviation="2"/>
<feComposite in2="hardAlpha" operator="out"/>
<feColorMatrix type="matrix" values="0 0 0 0 0 0 0 0 0 0 0 0 0 0 0 0 0 0 0.25 0"/>
<feBlend mode="normal" in2="BackgroundImageFix" result="effect1_dropShadow_120_163"/>
<feBlend mode="normal" in="SourceGraphic" in2="effect1_dropShadow_120_163" result="shape"/>
</filter>
<filter id="filter1_d_120_163" x="34.9526" y="22.8354" width="41.9204" height="35.6991" filterUnits="userSpaceOnUse" color-interpolation-filters="sRGB">
<feFlood flood-opacity="0" result="BackgroundImageFix"/>
<feColorMatrix in="SourceAlpha" type="matrix" values="0 0 0 0 0 0 0 0 0 0 0 0 0 0 0 0 0 0 127 0" result="hardAlpha"/>
<feOffset dy="4"/>
<feGaussianBlur stdDeviation="2"/>
<feComposite in2="hardAlpha" operator="out"/>
<feColorMatrix type="matrix" values="0 0 0 0 0 0 0 0 0 0 0 0 0 0 0 0 0 0 0.25 0"/>
<feBlend mode="normal" in2="BackgroundImageFix" result="effect1_dropShadow_120_163"/>
<feBlend mode="normal" in="SourceGraphic" in2="effect1_dropShadow_120_163" result="shape"/>
</filter>
<linearGradient id="paint0_linear_120_163" x1="96.4673" y1="32.7183" x2="-28.3174" y2="32.7183" gradientUnits="userSpaceOnUse">
<stop offset="0.471873" stop-color="#B93B5E"/>
<stop offset="0.596383" stop-color="#DD7D9A"/>
<stop offset="0.653257" stop-color="#E388A5"/>
<stop offset="0.753173" stop-color="#F6AAC4"/>
<stop offset="0.816196" stop-color="#D97593"/>
</linearGradient>
<linearGradient id="paint1_linear_120_163" x1="22.2122" y1="13.6081" x2="77.3714" y2="13.6081" gradientUnits="userSpaceOnUse">
<stop offset="0.45" stop-color="#B93B5E"/>
<stop offset="0.68" stop-color="#F6AAC4"/>
</linearGradient>
<linearGradient id="paint2_linear_120_163" x1="2.77261" y1="9.62511" x2="35.7951" y2="9.62511" gradientUnits="userSpaceOnUse">
<stop offset="0.755" stop-color="#B93B5E"/>
<stop offset="1" stop-color="#F6AAC4"/>
</linearGradient>
<linearGradient id="paint3_linear_120_163" x1="34.638" y1="2.82057" x2="59.4773" y2="2.77608" gradientUnits="userSpaceOnUse">
<stop offset="0.35" stop-color="#F6AAC4"/>
<stop offset="0.577339" stop-color="#D4748C"/>
</linearGradient>
<linearGradient id="paint4_linear_120_163" x1="4.12904" y1="35.6266" x2="82.5291" y2="35.6266" gradientUnits="userSpaceOnUse">
<stop offset="0.499809" stop-color="#B93B5E"/>
<stop offset="0.611756" stop-color="#D77291"/>
<stop offset="0.690468" stop-color="#E993AF"/>
<stop offset="0.912613" stop-color="#F6AAC4"/>
</linearGradient>
</defs>
</svg>
